<?xml version="1.0" encoding="UTF-8"?>
<svg id="Layer_1" xmlns="http://www.w3.org/2000/svg" width="100mm" height="100mm" version="1.1" viewBox="0 0 283.46 283.46">
  <!-- Generator: Adobe Illustrator 29.0.1, SVG Export Plug-In . SVG Version: 2.1.0 Build 192)  -->
  <path d="M96.74,157.92v-39.5c-6.05-3.48-12.96-5.63-20.35-6.02v-21.46c0-9.52-7.72-17.25-17.25-17.25h-30.8v129.86h68.4v-45.64Z" fill="#00d99b"/>
  <path d="M175.84,188.65c-7.44-8.12-11.96-18.9-11.96-30.78h0c0-11.9,4.58-22.7,12.05-30.81-7.83-8.49-18.83-14.01-31.14-14.66v-21.46c0-9.52-7.72-17.25-17.24-17.25h-30.8v44.72c13.67,7.87,22.89,22.59,22.89,39.5v45.64h22.75c13.32,0,25.21-5.73,33.54-14.83l-.08-.08Z" fill="#ffac00"/>
  <path d="M224.32,73.7c-9.52,0-17.25,7.72-17.25,17.25v21.46c-12.31.64-23.31,6.17-31.15,14.66,7.46,8.11,12.04,18.91,12.04,30.81h0c0,11.91-4.55,22.71-12.02,30.84,0,0-.03.03-.03.03,8.33,9.1,20.25,14.83,33.57,14.83h45.64V73.7h-30.8Z" fill="#ff0043"/>
</svg>