<svg xmlns="http://www.w3.org/2000/svg" width="6300" height="1400"><path d="M0 0 C83.11875 -0.04125 166.2375 -0.0825 251.875 -0.125 C278.08663574 -0.14320801 304.29827148 -0.16141602 331.30419922 -0.18017578 C363.39672852 -0.18920898 363.39672852 -0.18920898 378.43704224 -0.19088745 C389.59206995 -0.19286697 400.74707643 -0.20145416 411.90209635 -0.21334685 C423.31432435 -0.2253473 434.72653102 -0.22949656 446.13876624 -0.2268899 C452.31602818 -0.22569491 458.4932443 -0.22747061 464.67049766 -0.23843026 C496.60939339 -0.29236091 528.40926187 0.13017423 560.1875 3.6875 C560.92507538 3.76825775 561.66265076 3.8490155 562.4225769 3.93222046 C610.24008157 9.24164744 658.47375346 20.04089456 702 41 C702.94488281 41.45455566 703.88976563 41.90911133 704.86328125 42.37744141 C728.55193644 53.93239955 750.19239304 68.5209915 769.37890625 86.58984375 C771.94767935 89.01092403 771.94767935 89.01092403 774.63671875 91.08984375 C776.78008304 92.82224893 778.48025402 94.52454391 780.25 96.625 C782.13640753 98.84406434 784.02619734 101.02771164 786.02734375 103.14453125 C804.13458695 122.36505885 816.64259312 146.11394675 825 171 C825.3724585 172.09489746 825.3724585 172.09489746 825.75244141 173.21191406 C844.36188214 228.89837635 837.78835379 293.40577057 812.20703125 345.75390625 C808.63309701 352.80281423 804.37092928 359.42495876 800 366 C799.38125 366.93585938 798.7625 367.87171875 798.125 368.8359375 C784.73476579 388.48734604 768.01875236 405.806189 749 420 C748.45682129 420.41459473 747.91364258 420.82918945 747.35400391 421.25634766 C736.87115538 429.24916326 725.52118438 435.63085971 714 442 C714.71978027 442.29495361 715.43956055 442.58990723 716.18115234 442.89379883 C753.50766372 458.30263991 785.90040352 476.9122701 815 505 C816.42892578 506.36705078 816.42892578 506.36705078 817.88671875 507.76171875 C823.42852107 513.16773418 828.35040355 518.81401516 833 525 C833.46776855 525.61311035 833.93553711 526.2262207 834.41748047 526.85791016 C847.60632788 544.21691381 858.3294116 562.56521819 866 583 C866.24298828 583.64598145 866.48597656 584.29196289 866.73632812 584.95751953 C872.92933978 601.75010883 876.68197126 619.28493441 879 637 C879.09063721 637.66942627 879.18127441 638.33885254 879.2746582 639.02856445 C886.86302725 700.09822238 873.37463739 762.09442616 835.625 811.08203125 C778.81469839 881.9934613 685.16816915 910.22895552 598.125 920.19140625 C594.79297589 920.55745796 591.45943515 920.90668389 588.125 921.25 C587.39766663 921.32713226 586.67033325 921.40426453 585.92095947 921.48373413 C550.64489904 925.15788582 515.19727498 925.29268487 479.77331789 925.23214546 C473.89768909 925.22418704 468.02206392 925.2259959 462.14643159 925.22736086 C450.23273813 925.22981834 438.31906706 925.22337092 426.40538025 925.21115112 C410.29657373 925.19465807 394.18779979 925.19093566 378.07897949 925.18920898 C339.40681515 925.17875082 300.73465713 925.15082829 262.0625 925.125 C175.581875 925.08375 89.10125 925.0425 0 925 C0 619.75 0 314.5 0 0 Z M260 190 C260 248.41 260 306.82 260 367 C292.73046396 367.0583719 292.73046396 367.0583719 325.4609375 367.09765625 C338.82911737 367.10947365 352.19727183 367.12328318 365.56542969 367.15087891 C375.3060622 367.17097658 385.04667389 367.18375475 394.78732657 367.18817699 C399.93248563 367.19075701 405.07758517 367.19670694 410.22272491 367.21146011 C485.2997712 368.52260819 485.2997712 368.52260819 549.8125 334.5625 C567.07700141 316.5901848 570.44641915 294.60975421 570.2109375 270.640625 C569.77096443 251.16231103 562.15334466 234.64701719 548.9375 220.4375 C528.04558122 200.54043449 499.8025732 194.22100035 472 191 C470.69792603 190.83062927 469.39585205 190.66125854 468.05432129 190.48675537 C459.50577856 189.64444957 450.9018355 189.86941237 442.32177734 189.88647461 C440.33017986 189.886757 438.33858228 189.88659773 436.34698486 189.8860321 C430.96344201 189.88574616 425.57992161 189.89161011 420.19638395 189.89860606 C414.56163873 189.90487336 408.92689295 189.90544607 403.29214478 189.90663147 C392.6322667 189.90973484 381.97239893 189.91793482 371.31252539 189.92798096 C356.90054036 189.94126727 342.4885525 189.94665003 328.07656288 189.95248318 C305.38436754 189.96187539 282.69219394 189.98180095 260 190 Z M260 549 C260 610.38 260 671.76 260 735 C302.37694478 735.08749469 302.37694478 735.08749469 344.75390625 735.14648438 C350.49104844 735.15235645 356.22819038 735.15841745 361.96533203 735.16479492 C362.68421683 735.16558617 363.40310163 735.16637741 364.14377081 735.16719264 C375.69285005 735.18017875 387.24188368 735.2037954 398.79093604 735.23145839 C410.67652917 735.25968634 422.56209872 735.27621263 434.44772398 735.28226548 C441.10972116 735.28598353 447.77163579 735.29517642 454.43360519 735.31719017 C460.72579141 735.33781021 467.01783416 735.34378319 473.31005096 735.33932304 C475.59864461 735.34013699 477.88724391 735.34594854 480.17580795 735.35761642 C508.89634604 735.49665026 538.5995177 733.14422186 565 721 C566.58167969 720.29037109 566.58167969 720.29037109 568.1953125 719.56640625 C587.18551495 710.60555624 601.87316206 696.00577189 609.875 676.5625 C618.09778837 652.7761641 618.01973159 625.01661684 607.53515625 601.8671875 C595.76653255 579.88711169 575.78688365 565.41526081 552.1640625 558.15234375 C550.77771198 557.76224366 549.38956651 557.37848483 548 557 C547.22366211 556.78746582 546.44732422 556.57493164 545.64746094 556.35595703 C513.24075145 547.73822909 480.35371494 548.58378947 447.10184574 548.69581819 C441.17772323 548.71285648 435.25360609 548.71570489 429.32946238 548.7187738 C417.62065046 548.72528758 405.91190239 548.74510835 394.203125 548.77368164 C382.85091458 548.80135542 371.49872179 548.82248862 360.14648438 548.83520508 C359.43582258 548.83600907 358.72516079 548.83681306 357.99296379 548.83764142 C351.80810964 548.84458297 345.62325499 548.85103994 339.43840027 548.85744953 C312.95887329 548.8855154 286.47951639 548.94532373 260 549 Z " fill="#130A39" transform="translate(3895,285)"></path><path d="M0 0 C82.83 0 165.66 0 251 0 C251 323.73 251 647.46 251 981 C171.8 981 92.6 981 11 981 C10.67 958.56 10.34 936.12 10 913 C6.04 917.29 2.08 921.58 -2 926 C-14.38798337 937.98402739 -27.91931551 948.57698445 -43 957 C-43.80260254 957.44843262 -44.60520508 957.89686523 -45.43212891 958.35888672 C-123.33921277 1001.39151927 -220.79735643 1002.00352845 -304.9609375 978.34375 C-317.64077888 974.67404483 -329.87022651 970.19327899 -342 965 C-342.81001465 964.65743164 -343.6200293 964.31486328 -344.45458984 963.96191406 C-363.13524481 956.01569294 -381.28886047 946.56439699 -398 935 C-399.04317383 934.27925293 -399.04317383 934.27925293 -400.10742188 933.54394531 C-410.59198887 926.24657756 -420.45009472 918.47632116 -430 910 C-431.47876353 908.72869759 -432.95786073 907.45778305 -434.4375 906.1875 C-437.57370595 903.43996915 -440.5004422 900.5236741 -443.41796875 897.546875 C-445.08543509 895.85735778 -445.08543509 895.85735778 -447.5 894.0625 C-450.3493879 891.71175498 -452.60385694 889.12198852 -454.99609375 886.31640625 C-457.19054304 883.77974265 -459.46674497 881.33194163 -461.75 878.875 C-479.72568447 859.10446655 -494.14537106 836.27867169 -506.94726562 812.90429688 C-507.92918425 811.12809898 -508.94008654 809.36800976 -509.953125 807.609375 C-519.05113714 791.41047534 -525.56576588 773.75232628 -531.5 756.1875 C-531.81388672 755.26525635 -532.12777344 754.3430127 -532.45117188 753.39282227 C-534.86146888 746.03469184 -536.44218976 738.57724367 -538 731 C-538.47191023 728.8765649 -538.94836937 726.75413491 -539.4296875 724.6328125 C-542.25077246 712.01511443 -544.7311043 699.39269989 -546.75 686.625 C-547.04753174 684.77672607 -547.04753174 684.77672607 -547.35107422 682.89111328 C-550.4499379 662.65704441 -551.37532696 642.57888259 -551.3125 622.125 C-551.31100952 620.92066315 -551.30951904 619.71632629 -551.3079834 618.47549438 C-551.2657958 599.46636133 -550.55789884 580.84983083 -548 562 C-547.85546387 560.87577637 -547.71092773 559.75155273 -547.56201172 558.59326172 C-537.38628282 480.62441541 -503.90855888 406.7401596 -448 351 C-446.97911753 349.94662036 -445.95967203 348.89184682 -444.94140625 347.8359375 C-437.58436264 340.26738434 -429.97225546 333.52424558 -421.54296875 327.18017578 C-419.39351594 325.53611647 -417.32809644 323.79543316 -415.25 322.0625 C-402.82515227 312.13072939 -389.02470981 303.96840357 -375.17089844 296.21679688 C-373.23393132 295.1311194 -371.30790317 294.02839771 -369.3828125 292.921875 C-302.57636161 255.65569151 -217.0437991 244.28978551 -142 256 C-141.0507666 256.13921875 -140.1015332 256.2784375 -139.12353516 256.421875 C-97.606764 262.62676866 -57.05544268 277.79870058 -24 304 C-22.74703125 304.96486328 -22.74703125 304.96486328 -21.46875 305.94921875 C-16.67878041 309.68569819 -12.14644759 313.63816211 -7.6875 317.7578125 C-6.86282227 318.5168689 -6.86282227 318.5168689 -6.02148438 319.29125977 C-4.67993405 320.52636099 -3.33981756 321.76301932 -2 323 C-1.99739563 321.97855624 -1.99739563 321.97855624 -1.99473864 320.93647724 C-1.89181867 280.6204266 -1.78372968 240.30439281 -1.66888306 199.9883743 C-1.65511268 195.15281279 -1.64138571 190.31725116 -1.62768555 185.48168945 C-1.62495724 184.51897381 -1.62222894 183.55625816 -1.61941796 182.56436931 C-1.57528473 166.9548567 -1.53467121 151.3453368 -1.49534739 135.73581142 C-1.45495091 119.73142977 -1.41079766 103.7270617 -1.36312145 87.72270006 C-1.33379748 77.83886707 -1.3074405 67.95503515 -1.28482103 58.07118451 C-1.26905189 51.30305418 -1.24964971 44.53494049 -1.22733159 37.7668286 C-1.21454432 33.85591592 -1.20341532 29.94501613 -1.19658089 26.03408813 C-1.18914752 21.80423671 -1.17409272 17.5744479 -1.15821838 13.34461975 C-1.15724028 12.09464724 -1.15626217 10.84467473 -1.15525442 9.55682427 C-1.14704276 7.87135763 -1.14704276 7.87135763 -1.1386652 6.15184116 C-1.13600716 5.17406131 -1.13334911 4.19628146 -1.13061053 3.18887192 C-1 1 -1 1 0 0 Z M-214 468 C-214.65564941 468.32452148 -215.31129883 468.64904297 -215.98681641 468.98339844 C-249.81215904 486.03222934 -273.61443488 516.78132746 -285.6875 552.25 C-290.69312566 567.47613305 -293.72943476 583.03047998 -295 599 C-295.06848145 599.85062012 -295.13696289 600.70124023 -295.20751953 601.57763672 C-298.83625823 650.48254166 -291.29830579 700.3671043 -261 740 C-259.4613743 741.85185096 -259.4613743 741.85185096 -258 743 C-257.34 743 -256.68 743 -256 743 C-255.76667969 743.55558594 -255.53335938 744.11117188 -255.29296875 744.68359375 C-249.52499262 755.01715824 -237.55363127 762.48453581 -228 769 C-226.95070313 769.721875 -225.90140625 770.44375 -224.8203125 771.1875 C-192.18878314 792.44366162 -150.02757384 797.24477487 -112.36523438 789.52734375 C-76.95692456 781.63284032 -44.43999143 760.25118732 -24 730 C-21.12959142 725.44602284 -18.54924203 720.73911954 -16 716 C-15.53851562 715.15953125 -15.07703125 714.3190625 -14.6015625 713.453125 C-5.87702766 696.89317989 -0.99883752 678.62212219 1.25 660.125 C1.33371857 659.43956116 1.41743713 658.75412231 1.50369263 658.0479126 C4.6156667 631.80428238 5.01996568 604.00524377 0 578 C-0.14453613 577.21270508 -0.28907227 576.42541016 -0.43798828 575.61425781 C-6.24832751 544.56143708 -19.94770691 511.21902496 -44.9765625 490.69140625 C-47 489 -47 489 -49.0859375 486.96484375 C-75.1320045 461.7632738 -112.93428427 452.57441384 -148.18017578 452.69775391 C-171.05367281 453.1035679 -193.49897859 457.75205385 -214 468 Z " fill="#120938" transform="translate(2575,229)"></path><path d="M0 0 C0.66 0 1.32 0 2 0 C36.66666667 60.66666667 71.33333333 121.33333333 212.99995422 369.24992371 C213.6667691 370.41684719 214.33358835 371.58376817 215.00041199 372.75068665 C216.66484701 375.66340351 218.32920639 378.57616355 219.9934082 381.48901367 C223.01995704 386.7862036 226.04710324 392.08304817 229.07699585 397.37832642 C236.10700455 409.66462304 243.11841311 421.96074902 250.07373047 434.28955078 C256.3226897 445.35776861 262.63923646 456.38734627 268.95166016 467.41943359 C271.97100679 472.69669519 274.98690319 477.97592816 278.00302124 483.2550354 C279.6685358 486.17010647 281.33427963 489.08504653 283 492 C283.66666776 493.16666604 284.33333443 494.33333271 285 495.5 C285.33 496.0775 285.66 496.655 286 497.25 C292.33333333 508.33333333 298.66666667 519.41666667 305 530.5 C305.32999496 531.07748993 305.65998993 531.65497986 305.99998474 532.24996948 C306.66670665 533.41673537 307.33342418 534.58350376 308.00013733 535.75027466 C309.66592284 538.66544378 311.33178427 541.58056947 312.99780273 544.49560547 C316.00840313 549.76343195 319.01844147 555.03157559 322.02566528 560.30133057 C328.82477981 572.21576185 335.63760686 584.12184429 342.5 596 C353.11611331 614.37764993 363.64502988 632.80423915 374.07348633 651.2890625 C380.32244102 662.3574912 386.63914645 673.38718895 392.95166016 684.41943359 C395.63895935 689.11633745 398.32347482 693.81483091 401.0078125 698.51342773 C402.33409266 700.83486477 403.66094868 703.15597119 404.98828125 705.47680664 C408.04159579 710.8163397 411.09155196 716.15769123 414.12832642 721.50665283 C423.11084766 737.372839 423.11084766 737.372839 432.5 753 C439.2810831 763.93292384 445.56883238 775.15294526 451.91943359 786.33886719 C454.93708622 791.65214982 457.97146649 796.95586537 461.0050354 802.2600708 C462.67075069 805.17296505 464.33531551 808.08651658 466 811 C466.66666119 812.1666698 467.33332786 813.33333646 468 814.5 C474.66666667 826.16666667 481.33333333 837.83333333 488 849.5 C488.49498489 850.36621979 488.49498489 850.36621979 488.99996948 851.24993896 C489.66674664 852.41680407 490.33351503 853.58367419 491.00027466 854.75054932 C492.66517906 857.66422091 494.33023486 860.57780578 495.99560547 863.49121094 C499.01674381 868.77674813 502.03670406 874.06294244 505.0511322 879.35231018 C519.02183402 904.21524499 519.02183402 904.21524499 533.67456055 928.67211914 C535 931 535 931 535 933 C535.66 933 536.32 933 537 933 C537.35078613 933.63164063 537.70157227 934.26328125 538.06298828 934.9140625 C544.60185567 946.67428011 551.18615751 958.3965352 558 970 C563.37201946 979.14910331 568.59076562 988.37403198 573.75 997.64453125 C577.74964729 1004.81354191 581.84366494 1011.92081537 586 1019 C590.98406842 1027.49315154 595.8748425 1036.03347796 600.6875 1044.625 C601.27595703 1045.67429687 601.86441406 1046.72359375 602.47070312 1047.8046875 C605.09104102 1052.49856359 607.59359791 1057.18719583 610 1062 C440.38 1062 270.76 1062 96 1062 C96 988.41 96 914.82 96 839 C139.56 839 183.12 839 228 839 C220.79635647 825.14683937 213.60583602 811.39758285 206.09765625 797.7265625 C202.01073087 790.22532692 198.12320092 782.62121789 194.21118164 775.02783203 C190.56417848 767.96675199 186.83421404 760.96104635 183 754 C177.90887042 744.7570134 173.04354341 735.40766395 168.2109375 726.02734375 C164.56400492 718.96643243 160.83412614 711.96088677 157 705 C151.90887042 695.7570134 147.04354341 686.40766395 142.2109375 677.02734375 C138.56400492 669.96643243 134.83412614 662.96088677 131 656 C126.53728847 647.89791142 122.23623469 639.72270094 118 631.5 C113.27681862 622.33242046 108.44208155 613.24103511 103.46875 604.20703125 C99.13397442 596.30785135 94.98799215 588.31665838 90.85302734 580.31152344 C87.3425073 573.53323764 83.74374298 566.81193871 80.0625 560.125 C74.95222563 550.83975346 70.06498192 541.44925247 65.21118164 532.02783203 C61.56417848 524.96675199 57.83421404 517.96104635 54 511 C48.90887042 501.7570134 44.04354341 492.40766395 39.2109375 483.02734375 C35.56400443 475.96643149 31.83410558 468.96089916 28 462 C22.83489795 452.62210887 17.87977115 443.14286557 12.98242188 433.62304688 C9.07476068 426.03325499 5.07094933 418.50315298 1 411 C-4.99968467 421.63218456 -10.78582906 432.35382794 -16.39990234 443.19458008 C-19.80867731 449.76045005 -23.30793076 456.26893688 -26.875 462.75 C-32.00457461 472.07741997 -36.91357997 481.50916014 -41.78857422 490.97167969 C-45.89924391 498.93051553 -50.13938012 506.80652166 -54.4609375 514.65234375 C-58.42390843 521.87585426 -62.2267049 529.17588333 -66 536.5 C-70.72318138 545.66757954 -75.55791845 554.75896489 -80.53125 563.79296875 C-84.29047338 570.64333072 -87.91397608 577.55759377 -91.5 584.5 C-95.55248895 592.34546481 -99.67897209 600.13942935 -103.9375 607.875 C-109.04777437 617.16024654 -113.93501808 626.55074753 -118.78881836 635.97216797 C-122.89941909 643.93083416 -127.13946804 651.80668128 -131.4609375 659.65234375 C-135.42390823 666.87585388 -139.22671741 674.17587724 -143 681.5 C-147.69915025 690.62127636 -152.51073312 699.665208 -157.4609375 708.65234375 C-161.42390823 715.87585388 -165.22671741 723.17587724 -169 730.5 C-173.69915025 739.62127636 -178.51073312 748.665208 -183.4609375 757.65234375 C-187.42390864 764.87585463 -191.2266924 772.17588942 -195 779.5 C-199.27903554 787.80519238 -203.62753689 796.06106131 -208.125 804.25 C-214.23009978 815.42103365 -220.11132878 826.71338016 -226 838 C-161.155 838.495 -161.155 838.495 -95 839 C-95 912.59 -95 986.18 -95 1062 C-263.63 1062 -432.26 1062 -606 1062 C-604.56386092 1057.69158276 -603.47293907 1054.78934128 -601.234375 1051.04296875 C-600.68136719 1050.10839844 -600.12835937 1049.17382812 -599.55859375 1048.2109375 C-598.96175781 1047.21320313 -598.36492188 1046.21546875 -597.75 1045.1875 C-592.72263435 1036.68365376 -587.79726527 1028.13575698 -583 1019.5 C-577.86447161 1010.27025844 -572.59786397 1001.12761208 -567.25 992.01953125 C-562.47041897 983.85796989 -557.84651136 975.61555017 -553.24780273 967.35107422 C-549.27184365 960.22371733 -545.19836002 953.16060908 -541.0625 946.125 C-536.08266605 937.65034985 -531.24910897 929.10599823 -526.5 920.5 C-521.19787678 910.89186858 -515.76039135 901.37821068 -510.19921875 891.91796875 C-506.04099732 884.82838852 -501.9963387 877.68193905 -498 870.5 C-492.86374835 861.27065229 -487.59787376 852.12762875 -482.25 843.01953125 C-478.07756041 835.8947181 -474.01504756 828.71453859 -470 821.5 C-464.86368611 812.27068598 -459.59787465 803.12763027 -454.25 794.01953125 C-450.07756041 786.8947181 -446.01504756 779.71453859 -442 772.5 C-436.86368611 763.27068598 -431.59787465 754.12763027 -426.25 745.01953125 C-422.07756041 737.8947181 -418.01504756 730.71453859 -414 723.5 C-408.86368611 714.27068598 -403.59787465 705.12763027 -398.25 696.01953125 C-394.07756041 688.8947181 -390.01504756 681.71453859 -386 674.5 C-380.86368611 665.27068598 -375.59787465 656.12763027 -370.25 647.01953125 C-366.07756041 639.8947181 -362.01504756 632.71453859 -358 625.5 C-352.86368611 616.27068598 -347.59787465 607.12763027 -342.25 598.01953125 C-338.07756041 590.8947181 -334.01504756 583.71453859 -330 576.5 C-324.86368611 567.27068598 -319.59787465 558.12763027 -314.25 549.01953125 C-310.07756041 541.8947181 -306.01504756 534.71453859 -302 527.5 C-297.42427808 519.27799968 -292.76412217 511.1142901 -288 503 C-282.68160725 493.93815741 -277.50128891 484.80807301 -272.38623047 475.63012695 C-268.012484 467.78903143 -263.58512833 459.97969078 -259.125 452.1875 C-258.79163635 451.60504517 -258.45827271 451.02259033 -258.11480713 450.42248535 C-256.42126286 447.46406468 -254.72692174 444.50610134 -253.03222656 441.54833984 C-250.01631711 436.28378943 -247.00739789 431.015245 -243.99798584 425.74697876 C-242.33228029 422.83115361 -240.66611686 419.91559013 -239 417 C-238.33333114 415.83333459 -237.66666448 414.66666792 -237 413.5 C-204 355.75 -171 298 -40.00009155 68.75016785 C-39.33311095 67.5829467 -38.66613911 66.41572054 -37.99917603 65.24848938 C-36.33738433 62.34026522 -34.67544266 59.43212697 -33.01318359 56.52416992 C-29.95489633 51.1736457 -26.89796079 45.82236513 -23.84623718 40.46809387 C-10.99447001 17.91967273 -10.99447001 17.91967273 -5.0625 7.8125 C-4.65531738 7.11745361 -4.24813477 6.42240723 -3.82861328 5.70629883 C-1.12574848 1.12574848 -1.12574848 1.12574848 0 0 Z " fill="#120938" transform="translate(624,148)"></path><path d="M0 0 C83.16 0 166.32 0 252 0 C252.04898437 27.40417969 252.09796875 54.80835938 252.1484375 83.04296875 C252.18382192 100.40169575 252.21968858 117.76041974 252.2578125 135.11914062 C252.27781869 144.23998991 252.29770283 153.36083945 252.31738281 162.48168945 C252.31985425 163.62474283 252.32232569 164.7677962 252.32487202 165.94548756 C252.364525 184.36740465 252.39729647 202.78932782 252.42749982 221.21126255 C252.4586812 240.13569981 252.49731888 259.06011141 252.54279006 277.98451978 C252.57058595 289.64944738 252.59265729 301.31435635 252.60726251 312.97930805 C252.61785454 320.99272693 252.63572909 329.0061096 252.65916704 337.01950111 C252.67245273 341.63364493 252.68268456 346.24773828 252.68421364 350.86190224 C252.6941087 373.10278159 252.83565579 395.08259543 257.1875 417 C257.40253174 418.08611572 257.61756348 419.17223145 257.83911133 420.29125977 C262.27382121 441.67641633 269.8478123 463.73765202 285 480 C285.66128906 480.73992187 286.32257813 481.47984375 287.00390625 482.2421875 C305.35487868 501.77600346 332.51696875 512.06520197 359.04199219 513.12109375 C373.65311508 513.53843516 387.7228772 513.25989273 402 510 C403.48886719 509.67515625 403.48886719 509.67515625 405.0078125 509.34375 C423.27806682 504.869402 439.5837518 495.89386505 454 484 C454.87527344 483.29101562 455.75054688 482.58203125 456.65234375 481.8515625 C480.68783892 461.42329014 492.44278341 430.90529537 498.6875 400.8125 C498.89004395 399.85859375 499.09258789 398.9046875 499.30126953 397.921875 C503.50211553 376.64786592 503.30920238 355.1173699 503.31667423 333.53534472 C503.32041357 329.04690028 503.33559068 324.55849145 503.34928894 320.07006836 C503.37142513 312.31763786 503.38651984 304.56522025 503.39665604 296.81276512 C503.41132122 285.60440122 503.4368793 274.39608231 503.46498732 263.18774501 C503.51031393 244.99732702 503.54698672 226.80690249 503.578125 208.61645508 C503.60836872 190.95954238 503.64276778 173.30264569 503.68261719 155.64575195 C503.68633945 153.99305846 503.68633945 153.99305846 503.69013691 152.30697721 C503.70957979 143.68857357 503.72926153 135.07017049 503.74901867 126.45176756 C503.84558516 84.30119789 503.92134148 42.15061425 504 0 C587.16 0 670.32 0 756 0 C756 236.61 756 473.22 756 717 C676.8 717 597.6 717 516 717 C515.67 692.58 515.34 668.16 515 643 C505.1 652.9 505.1 652.9 495 663 C425.68906462 718.4487483 341.28113072 736.39557167 254.07881165 726.74047852 C195.3154158 719.90995956 139.63982964 698.22512534 95 659 C94.32324219 658.43410156 93.64648438 657.86820313 92.94921875 657.28515625 C80.90822529 647.15215747 70.30889474 635.65723806 61 623 C60.57380371 622.42926758 60.14760742 621.85853516 59.70849609 621.27050781 C53.19552392 612.53233175 47.3419057 603.49840677 42 594 C41.5654248 593.2280127 41.13084961 592.45602539 40.68310547 591.66064453 C33.20271945 578.22252301 27.15492344 564.48478489 22 550 C21.68579102 549.11795898 21.37158203 548.23591797 21.04785156 547.32714844 C5.55531051 503.03203906 -0.20740956 455.3697072 -0.12025452 408.62484741 C-0.12069186 406.8480225 -0.12156975 405.07119766 -0.12284368 403.29437315 C-0.12505668 398.46656101 -0.1211117 393.63877147 -0.11606562 388.8109622 C-0.11171488 383.5842359 -0.1132108 378.35751069 -0.1139679 373.13078308 C-0.11449022 364.09325233 -0.11137399 355.05572884 -0.10573006 346.01819992 C-0.09757539 332.9517261 -0.09499578 319.88525576 -0.09374207 306.81877966 C-0.09155776 285.61518706 -0.08491457 264.41159832 -0.07543945 243.20800781 C-0.06624923 222.6204429 -0.05918776 202.03287905 -0.05493164 181.4453125 C-0.05466364 180.16166266 -0.05439565 178.87801282 -0.05411953 177.55546451 C-0.0520399 167.51528901 -0.05008304 157.47511349 -0.04816496 147.43493795 C-0.03874489 98.28995509 -0.01862336 49.14498191 0 0 Z " fill="#120938" transform="translate(1184,493)"></path><path d="M0 0 C2.07476483 0.00544753 4.14951823 0.00780967 6.22428894 0.00987244 C26.97174592 0.04199772 47.44610889 0.62427118 68.0398407 3.31785583 C69.18952332 3.45707458 70.33920593 3.59629333 71.52372742 3.73973083 C114.93953128 9.04917946 157.05785652 21.78137905 197.0398407 39.31785583 C197.80554382 39.65107849 198.57124695 39.98430115 199.3601532 40.32762146 C225.07354861 51.61813963 250.24178092 66.60498323 272.0398407 84.31785583 C272.86870789 84.96754333 273.69757507 85.61723083 274.55155945 86.28660583 C277.07274564 88.26782784 279.55931545 90.28597567 282.0398407 92.31785583 C283.50357117 93.50121521 283.50357117 93.50121521 284.99687195 94.70848083 C292.91389641 101.22993757 300.2306868 108.32029754 307.4773407 115.56785583 C307.94974182 116.03935059 308.42214294 116.51084534 308.90885925 116.99662781 C358.46315322 166.56169725 390.60073066 232.41276747 402.0398407 301.31785583 C402.24818542 302.54182068 402.24818542 302.54182068 402.46073914 303.79051208 C406.06790594 325.21283915 407.42856733 346.60975206 407.3523407 368.31785583 C407.35085022 369.37858307 407.34935974 370.4393103 407.3478241 371.53218079 C407.30319229 389.30113681 406.4968217 406.70468466 404.0398407 424.31785583 C403.89530457 425.37569275 403.75076843 426.43352966 403.60185242 427.52342224 C396.47488341 478.05939407 378.33782668 527.7612797 350.0398407 570.31785583 C349.60317078 570.97833923 349.16650085 571.63882263 348.71659851 572.31932068 C342.67379189 581.41398392 336.29916902 590.19137342 329.39628601 598.65281677 C328.11778931 600.22217377 326.85560119 601.80477637 325.5945282 603.38816833 C318.60027282 611.979084 310.78347965 619.78645034 302.9773407 627.63035583 C302.14539688 628.4702002 302.14539688 628.4702002 301.29664612 629.32701111 C294.20031069 636.47534154 286.9348943 643.05123624 279.0398407 649.31785583 C277.39042011 650.70944837 275.74415749 652.10480035 274.1023407 653.50535583 C218.84422691 698.60920085 148.91737546 724.58113328 79.0398407 735.31785583 C77.72838074 735.52620056 77.72838074 735.52620056 76.39042664 735.73875427 C-21.94219189 751.19985781 -127.82128739 735.55033984 -257.47383118 660.94676208 C-264.19186141 656.03885312 -270.68512291 651.06136281 -276.7492218 645.34910583 C-279.02270264 643.26039553 -281.39584814 641.39676018 -283.8351593 639.50535583 C-289.66224631 634.79693596 -294.91568127 629.54935281 -300.2101593 624.25535583 C-301.06206848 623.40417175 -301.91397766 622.55298767 -302.79170227 621.67601013 C-307.71139714 616.71349766 -312.44826322 611.65378909 -316.9601593 606.31785583 C-317.47658997 605.70820984 -317.99302063 605.09856384 -318.52510071 604.47044373 C-341.81146869 576.71501209 -360.8624387 545.69391142 -374.9601593 512.31785583 C-375.26228333 511.61902283 -375.56440735 510.92018982 -375.87568665 510.20018005 C-385.54272177 487.69756018 -391.5613485 463.343165 -395.9601593 439.31785583 C-396.11178528 438.51638123 -396.26341125 437.71490662 -396.41963196 436.8891449 C-401.08200637 412.09640644 -402.5380117 386.51724509 -401.9601593 361.31785583 C-401.94227356 360.51686462 -401.92438782 359.71587341 -401.90596008 358.89060974 C-400.67250905 310.08376253 -390.83490266 262.1132957 -370.90888977 217.45018005 C-370.00320577 215.41460515 -369.12367192 213.36923759 -368.24531555 211.32176208 C-357.26309974 186.34548532 -341.59331802 162.99523612 -324.31660461 141.97850037 C-323.11668888 140.50948905 -321.93902662 139.02236188 -320.7648468 137.53269958 C-306.56134942 119.6298122 -289.89556719 103.44808016 -271.9601593 89.31785583 C-270.69275012 88.28589556 -269.42586279 87.25329418 -268.15937805 86.22019958 C-193.12540567 25.69743229 -95.08930186 -0.25998196 0 0 Z M-107.8351593 247.25535583 C-134.15900037 276.89037188 -146.940311 318.0511328 -147.1632843 357.32176208 C-147.17029861 358.15435043 -147.17731293 358.98693878 -147.18453979 359.84475708 C-147.2019665 362.52334558 -147.20839397 365.20171269 -147.2101593 367.88035583 C-147.21083405 368.79691956 -147.21150879 369.71348328 -147.21220398 370.65782166 C-147.15601084 418.73603908 -134.90442177 464.86071482 -100.48603821 499.81492615 C-72.24017908 527.52379176 -33.8761881 540.43339896 5.22392273 540.3110199 C46.72418049 539.36585948 82.65555595 523.67037855 111.55937195 493.97410583 C145.10309357 458.05327008 154.55315111 406.92061453 153.0398407 359.31785583 C151.39434188 319.15029331 141.30618737 275.75980059 112.0398407 246.31785583 C111.1942157 245.45160583 110.3485907 244.58535583 109.4773407 243.69285583 C108.2707782 242.51723083 108.2707782 242.51723083 107.0398407 241.31785583 C106.21999695 240.44773865 106.21999695 240.44773865 105.3835907 239.56004333 C89.32275086 222.77514924 67.48196702 211.00078137 45.0398407 205.31785583 C44.09624695 205.06391052 43.1526532 204.80996521 42.1804657 204.54832458 C-12.58574127 190.7205385 -68.97771832 206.72994839 -107.8351593 247.25535583 Z " fill="#130A39" transform="translate(5219.960159301758,481.68214416503906)"></path><path d="M0 0 C83.16 0 166.32 0 252 0 C252 61.38 252 122.76 252 186 C306.12 186 360.24 186 416 186 C416 248.04 416 310.08 416 374 C361.88 374 307.76 374 252 374 C252.09059771 418.01860207 252.09059771 418.01860207 252.20898438 462.03710938 C252.2270321 467.98396744 252.2448957 473.93082601 252.26245117 479.87768555 C252.2657627 480.99556057 252.2657627 480.99556057 252.26914114 482.13601893 C252.30442497 494.1372533 252.32933184 506.1384876 252.35034702 518.13975447 C252.3721784 530.47396313 252.40529779 542.80810502 252.44870156 555.1422568 C252.47509253 562.74127781 252.49288007 570.34021576 252.49934604 577.93928028 C252.50526805 583.78519023 252.52696305 589.63096331 252.55427551 595.47680855 C252.56301126 597.86107702 252.56678767 600.24537012 252.56500816 602.62965393 C252.5516992 628.70865389 255.54194889 653.74134925 274.36328125 673.6171875 C292.30509232 689.83126862 313.63795682 692.88166476 337.01269531 692.15234375 C358.0380967 691.08011014 380.9611876 684.88966913 398.36328125 672.72265625 C401 671 401 671 404 671 C411.35364241 690.58494441 418.29371641 710.31201982 425.1875 730.0625 C427.02572529 735.3282355 428.86411033 740.59391513 430.703125 745.859375 C430.92962486 746.50792009 431.15612473 747.15646519 431.38948822 747.82466316 C435.38072619 759.25053322 439.40426769 770.66465552 443.46115112 782.06738281 C444.42688731 784.78266121 445.3904101 787.49871788 446.35375977 790.21484375 C449.23221938 798.31767669 452.13919736 806.4081515 455.12336731 814.47273254 C456.47638374 818.13069336 457.81942152 821.79228723 459.16238403 825.45394897 C460.10149197 827.9987966 461.05709248 830.53702648 462.01342773 833.07543945 C462.57489962 834.60336864 463.1355754 836.1315907 463.6953125 837.66015625 C464.09383675 838.69417572 464.09383675 838.69417572 464.50041199 839.74908447 C465.49727913 842.51702969 466.1557293 844.4149311 465.38623047 847.3059082 C463.77615404 849.27355884 462.36745792 850.24656268 460.125 851.4453125 C459.31836914 851.8774707 458.51173828 852.30962891 457.68066406 852.75488281 C456.79604492 853.20702148 455.91142578 853.65916016 455 854.125 C454.07155273 854.60291992 453.14310547 855.08083984 452.18652344 855.57324219 C418.36569178 872.54519112 380.26084338 881.74108134 342.75878906 885.70751953 C340.96265841 885.89794117 339.16760379 886.09890316 337.37402344 886.31201172 C284.97033185 892.4662857 230.00435621 887.93601507 179 875 C178.21367187 874.80325684 177.42734375 874.60651367 176.6171875 874.40380859 C157.29839134 869.47312494 138.51804609 861.45891878 121 852 C120.01362549 851.47672119 120.01362549 851.47672119 119.00732422 850.94287109 C99.997384 840.82211163 83.65140149 827.72808141 68 813 C67.34128906 812.38382813 66.68257812 811.76765625 66.00390625 811.1328125 C18.06128007 764.85101633 1.15530116 692.77077052 -0.17935562 628.38150978 C-0.26547844 621.57951354 -0.24845305 614.7781846 -0.22705078 607.97583008 C-0.22648467 605.40045171 -0.22680712 602.82507301 -0.22793579 600.24969482 C-0.22897057 594.7694938 -0.22284431 589.2893414 -0.21146011 583.8091526 C-0.19501267 575.88630953 -0.18997776 567.96348931 -0.18748413 560.04063102 C-0.1831367 547.17770888 -0.169909 534.3148125 -0.15087891 521.4519043 C-0.1324428 508.97729621 -0.11832445 496.50269519 -0.10986328 484.02807617 C-0.10933783 483.25556386 -0.10881239 482.48305155 -0.10827102 481.68712977 C-0.10566042 477.81059435 -0.10313313 473.93405888 -0.10064721 470.05752337 C-0.08000692 438.03832606 -0.0431879 406.01917681 0 374 C-34.32 374 -68.64 374 -104 374 C-104 311.96 -104 249.92 -104 186 C-69.68 186 -35.36 186 0 186 C0 124.62 0 63.24 0 0 Z " fill="#130A39" transform="translate(5736,334)"></path><path d="M0 0 C82.83 0 165.66 0 251 0 C251 61.38 251 122.76 251 186 C305.12 186 359.24 186 415 186 C415 248.04 415 310.08 415 374 C360.88 374 306.76 374 251 374 C251.11980689 416.37015152 251.11980689 416.37015152 251.2578125 458.74023438 C251.27781713 464.46769155 251.29770103 470.19514913 251.31738281 475.92260742 C251.31985425 476.64033953 251.32232569 477.35807163 251.32487202 478.09755319 C251.36446946 489.64808969 251.39726525 501.19863583 251.42749982 512.7492002 C251.45873796 524.62462095 251.49739897 536.50000125 251.54279006 548.3753764 C251.56804228 555.03654876 251.58975121 561.69770209 251.60334396 568.35891151 C251.61627391 574.64206013 251.63844366 580.92511155 251.66738319 587.20820618 C251.67637424 589.50133392 251.6821291 591.79447727 251.68421364 594.08762169 C251.71368826 621.61257555 252.59084797 650.96882582 272.79125977 672.03979492 C288.81011654 687.89887634 308.62546496 692.25708427 330.45922852 692.2487793 C354.15221999 692.00121666 377.82512108 685.90229868 397.875 673 C401 671 401 671 404 671 C404.40089844 672.15781982 404.80179688 673.31563965 405.21484375 674.50854492 C414.33422315 700.83453217 423.56522884 727.11789401 432.92251587 753.36019897 C437.59849442 766.47771473 442.24659504 779.60514384 446.88818359 792.73486328 C447.58558431 794.70736655 448.28301237 796.67986016 448.98046875 798.65234375 C449.31949219 799.61122498 449.65851562 800.5701062 450.0078125 801.55804443 C451.94015864 807.0190176 453.88295161 812.47609463 455.83786011 817.92903137 C456.98444035 821.12824477 458.12668203 824.32899805 459.26843262 827.52993774 C459.79178692 828.99313742 460.31736991 830.45554214 460.84533691 831.91708374 C461.56005953 833.89589019 462.2672016 835.87724939 462.97265625 837.859375 C463.36718994 838.95733398 463.76172363 840.05529297 464.16821289 841.18652344 C465 844 465 844 465 848 C429.70405597 869.48900122 388.64826141 879.70421344 348 885 C346.2682251 885.22647217 346.2682251 885.22647217 344.50146484 885.45751953 C273.07587556 894.32473813 193.14100892 888.42013278 128 856 C127.00323242 855.50983398 127.00323242 855.50983398 125.98632812 855.00976562 C105.65976318 844.91812764 87.34642383 831.69779612 71 816 C70.14656006 815.18740723 70.14656006 815.18740723 69.27587891 814.35839844 C61.02005302 806.46112932 53.57930833 798.34655947 47 789 C46.3819751 788.12456543 46.3819751 788.12456543 45.75146484 787.23144531 C14.2600449 742.20222325 -0.27809811 685.89004466 -0.12025452 631.22441101 C-0.12110894 630.1148279 -0.12196337 629.0052448 -0.12284368 627.86203796 C-0.12447633 624.18494514 -0.11901376 620.50789908 -0.11352539 616.83081055 C-0.11324301 614.17867939 -0.11335833 611.52655099 -0.1139679 608.87442017 C-0.11448972 603.18554396 -0.11137877 597.49667931 -0.10573006 591.80780602 C-0.09756854 583.58286817 -0.09499509 575.35793585 -0.09374207 567.13299439 C-0.09155883 553.78535573 -0.08491855 540.43772322 -0.07543945 527.09008789 C-0.06624646 514.13175487 -0.05917487 501.17342352 -0.05493164 488.21508789 C-0.05466892 487.41500149 -0.05440619 486.61491508 -0.05413551 485.79058363 C-0.05283038 481.77638672 -0.05156669 477.7621898 -0.05032361 473.74799287 C-0.03997367 440.49865647 -0.02154764 407.2493315 0 374 C-34.65 374 -69.3 374 -105 374 C-105 311.96 -105 249.92 -105 186 C-70.35 186 -35.7 186 0 186 C0 124.62 0 63.24 0 0 Z " fill="#130A39" transform="translate(3358,334)"></path><path d="M0 0 C83.16 0 166.32 0 252 0 C252 236.61 252 473.22 252 717 C168.84 717 85.68 717 0 717 C0 480.39 0 243.78 0 0 Z " fill="#120938" transform="translate(2951,493)"></path><path d="M0 0 C1.36232254 0.00406357 1.36232254 0.00406357 2.75216675 0.00820923 C23.87667499 0.10329068 44.36632078 2.30370176 64.375 9.4375 C65.32608643 9.77370361 65.32608643 9.77370361 66.29638672 10.11669922 C79.93689379 15.03616944 92.8161769 21.64655697 104.375 30.4375 C105.56802734 31.32501953 105.56802734 31.32501953 106.78515625 32.23046875 C132.32863351 51.86372781 148.37664508 78.97636301 152.99560547 110.89892578 C153.68405645 117.32003811 153.72230953 123.73591166 153.6875 130.1875 C153.68476578 131.24265305 153.68476578 131.24265305 153.68197632 132.31912231 C153.63550689 142.9824179 153.07261742 153.07125241 150.375 163.4375 C150.20871094 164.11699707 150.04242187 164.79649414 149.87109375 165.49658203 C141.58494591 199.00177426 119.90266306 226.24532374 91 244.625 C49.56961016 269.35360814 -3.20017272 273.57298946 -49.56567383 262.11450195 C-76.07096388 255.13139579 -97.83611626 242.24416177 -117.625 223.4375 C-118.59373047 222.56544922 -118.59373047 222.56544922 -119.58203125 221.67578125 C-142.20786527 200.63958428 -152.47933618 168.65455117 -153.79296875 138.59375 C-153.97448214 104.61444352 -144.68479452 72.06386303 -120.4921875 47.328125 C-120.00331055 46.83634766 -119.51443359 46.34457031 -119.01074219 45.83789062 C-117.75975357 44.57367803 -116.53810193 43.28059832 -115.3203125 41.984375 C-105.56557563 31.76512685 -94.1797616 23.83646106 -81.625 17.4375 C-80.96435547 17.09976563 -80.30371094 16.76203125 -79.62304688 16.4140625 C-70.77373791 11.9852456 -61.81430863 8.66654193 -52.25 6.125 C-51.39092041 5.89474121 -50.53184082 5.66448242 -49.64672852 5.42724609 C-33.24116842 1.33823111 -16.86186076 -0.11901759 0 0 Z " fill="#130A39" transform="translate(3076.625,147.5625)"></path></svg>