<svg width="519" height="145" viewBox="0 0 519 145" fill="none" xmlns="http://www.w3.org/2000/svg">
<path d="M114.739 13.0789C122.035 15.4989 127.941 19.9368 132.459 26.3857C136.085 31.6046 138.554 37.2524 139.872 43.3227C141.19 49.3962 141.851 55.1849 141.851 60.6886C141.851 74.639 139.074 86.4509 133.519 96.1311C125.989 109.18 114.364 115.703 98.6428 115.703H54.5288C54.1296 115.703 53.8076 115.377 53.8076 114.975V11.5303C53.8076 11.1281 54.1296 10.803 54.5288 10.803H98.6394C105.089 10.8968 110.453 11.6577 114.739 13.0789ZM74.902 29.7477V98.4874C74.902 98.8896 75.224 99.2148 75.6231 99.2148H94.9666C105.237 99.2148 112.395 92.3837 116.447 82.1807C118.66 76.5831 119.767 69.9162 119.767 62.1835C119.767 51.5079 118.107 43.3126 114.786 37.5943C111.466 31.8761 104.858 29.0169 94.9666 29.0169H75.6231C75.224 29.0203 74.902 29.3454 74.902 29.7477Z" fill="#1B305E"/>
<path d="M206.375 37.5642C211.739 39.9741 216.169 43.7751 219.664 48.9672C222.814 53.5458 224.857 58.8585 225.789 64.9052C226.312 68.3174 226.534 73.1742 226.463 79.4791C226.46 79.8746 226.135 80.2031 225.739 80.2031H171.217C170.801 80.2031 170.462 80.5651 170.486 80.9807C170.942 88.3011 173.608 93.463 178.485 96.4696C181.558 98.4036 185.251 99.3689 189.571 99.3689C194.153 99.3689 197.872 98.1891 200.737 95.8327C202.209 94.6328 203.521 92.9904 204.671 90.9055C204.799 90.6776 205.037 90.5268 205.299 90.5268H224.562C225.004 90.5268 225.357 90.9223 225.283 91.358C224.555 95.6618 222.11 100.029 217.947 104.46C211.058 111.959 201.418 115.706 189.017 115.706C178.784 115.706 169.754 112.545 161.933 106.22C154.111 99.8952 150.2 89.6084 150.2 75.3563C150.2 62.0025 153.732 51.7626 160.792 44.6366C167.853 37.5105 177.02 33.9475 188.29 33.9475C194.985 33.9509 201.012 35.1542 206.375 37.5642ZM176.298 55.1111C173.622 57.873 171.881 61.5567 171.079 66.1622C171.002 66.6046 171.354 67.0169 171.801 67.0169H204.785C205.211 67.0169 205.557 66.6381 205.517 66.2158C205.034 61.2718 203.269 57.4876 200.227 54.8631C197.021 52.0978 193.046 50.7168 188.303 50.7168C183.138 50.7135 179.139 52.1816 176.298 55.1111Z" fill="#1B305E"/>
<path d="M266.754 66.1555C270.497 65.6829 273.173 65.0896 274.783 64.379C277.675 63.1456 279.117 61.2283 279.117 58.6206C279.117 55.4464 278.007 53.2509 275.793 52.0442C273.576 50.8342 270.322 50.8309 266.032 50.8309C261.219 50.8309 257.808 51.4174 255.806 53.7872C254.454 55.443 253.528 57.6485 253.028 60.4071C252.978 60.6887 252.736 60.8998 252.451 60.8998H234.188C233.842 60.8998 233.564 60.5981 233.591 60.2529C234.094 53.7671 235.966 48.4108 239.212 44.1908C244.549 37.3665 253.713 33.9509 266.703 33.9509C275.159 33.9509 282.669 35.6336 289.233 38.9988C295.797 42.3641 299.081 48.7158 299.081 58.0541V93.6072V115.113C299.081 115.441 298.816 115.706 298.487 115.703L279.634 115.693C279.308 115.693 279.043 115.428 279.043 115.103V106.022C279.043 105.506 278.436 105.235 278.057 105.583C276.336 107.169 272.714 110.383 270.031 111.955C265.68 114.466 260.76 115.723 255.272 115.723C248.272 115.723 242.489 113.718 237.924 109.713C233.359 105.707 231.079 100.033 231.079 92.6821C231.079 83.1528 234.751 76.258 242.094 71.9911C246.122 69.6683 252.046 68.0091 259.861 67.0136L266.754 66.1555ZM279.047 80.8266C279.047 80.5014 278.782 80.2333 278.453 80.2333H263.621C263.601 80.2333 263.577 80.2333 263.557 80.2366C256.99 80.8701 250.835 83.0421 250.429 90.5201C250.177 97.1769 257.389 99.3791 265.08 99.064C273.398 98.3065 279.047 95.2161 279.047 87.6275V80.8266ZM279.047 83.1494C279.047 82.1606 279.047 80.3003 279.047 80.2333Z" fill="#1B305E"/>
<path d="M354.355 35.7141C358.551 37.4537 362.052 40.4469 364.863 44.6937C365.256 45.2869 366.191 45.0288 366.191 44.3216V34.6515C366.191 34.2627 366.513 33.9443 366.913 33.9443H385.079C385.478 33.9443 385.8 34.2593 385.8 34.6515V108.888C385.8 118.833 384.13 126.328 380.792 131.373C375.053 140.044 364.048 144.381 347.777 144.381C337.946 144.381 329.93 142.447 323.721 138.582C317.727 134.852 314.319 129.341 313.501 122.051C313.454 121.632 313.799 121.26 314.229 121.26H334.736C335.065 121.26 335.343 121.485 335.43 121.796C336.001 123.878 336.873 125.396 338.043 126.351C340.207 128.188 343.853 129.11 348.978 129.11C356.219 129.11 361.063 126.683 363.511 121.826C365.111 118.716 365.91 113.484 365.91 106.13V103.659C365.91 102.959 364.984 102.697 364.588 103.281C363.045 105.55 361.415 107.323 359.704 108.603C355.706 111.667 350.511 113.983 344.114 113.983C334.236 113.983 326.347 109.723 320.447 102.771C314.544 95.8195 311.592 86.4041 311.592 74.5251C311.592 63.0719 314.433 53.4453 320.119 45.6422C325.804 37.8425 333.857 33.9409 344.285 33.9409C348.129 33.9443 351.487 34.5342 354.355 35.7141ZM361.2 90.966C364.434 87.4063 366.047 81.7383 366.047 73.962C366.047 66.655 364.514 61.0943 361.445 57.2765C358.376 53.4587 354.267 50.4723 349.119 50.4723C342.092 50.4723 337.245 54.8732 334.575 61.5166C333.17 65.0528 332.469 69.4102 332.469 74.5955C332.469 79.0736 333.217 83.0556 334.716 86.5449C337.433 93.0508 342.303 97.9512 349.33 97.9512C354.012 97.9546 357.967 94.5256 361.2 90.966Z" fill="#1B305E"/>
<path d="M405.472 115.703H424.134C424.533 115.703 424.855 115.377 424.855 114.975V11.5303C424.855 11.1281 424.533 10.803 424.134 10.803H405.472C405.073 10.803 404.751 11.1281 404.751 11.5303V114.975C404.747 115.377 405.073 115.703 405.472 115.703Z" fill="#1B305E"/>
<path d="M508.304 103.72C501.814 111.71 491.959 115.706 478.744 115.706C465.528 115.706 455.674 111.71 449.183 103.72C442.693 95.7288 439.45 86.109 439.45 74.8601C439.45 63.799 442.693 54.2161 449.183 46.108C455.674 37.9998 465.525 33.9441 478.744 33.9441C491.959 33.9441 501.814 37.9998 508.304 46.108C514.794 54.2161 518.038 63.799 518.038 74.8601C518.038 86.109 514.794 95.7288 508.304 103.72ZM492.217 92.635C495.367 88.4653 496.943 82.5426 496.943 74.8601C496.943 67.1777 495.367 61.265 492.217 57.1221C489.065 52.9759 484.55 50.9045 478.673 50.9045C472.793 50.9045 468.269 52.9793 465.092 57.1221C461.919 61.265 460.329 67.1811 460.329 74.8601C460.329 82.5426 461.916 88.4687 465.092 92.635C468.269 96.8014 472.793 99.3253 478.673 99.3253C484.553 99.3253 489.068 96.8047 492.217 92.635Z" fill="#1B305E"/>
<path d="M5.03795 0H5.07485C7.85881 0 10.1128 2.25579 10.1128 5.03448V110.668C10.1128 113.45 7.85545 115.703 5.07485 115.703H5.03795C2.254 115.703 0 113.447 0 110.668V5.03448C0 2.25579 2.254 0 5.03795 0Z" fill="#006A44"/>
<path d="M29.7783 144.495H29.8286C32.6059 144.495 34.8599 142.242 34.8599 139.467V34.048C34.8599 31.2727 32.6059 29.0203 29.8286 29.0203H29.7783C27.0011 29.0203 24.7471 31.2727 24.7471 34.048V139.467C24.7471 142.246 27.0011 144.495 29.7783 144.495Z" fill="#006A44"/>
</svg>
