<svg width="1162" height="375" viewBox="0 0 1162 375" fill="none" xmlns="http://www.w3.org/2000/svg">
<g clip-path="url(#clip0_503_526)">
<mask id="mask0_503_526" style="mask-type:alpha" maskUnits="userSpaceOnUse" x="-55" y="-18" width="243" height="244">
<rect width="207.799" height="207.799" transform="matrix(0.183858 0.982953 0.982953 -0.183858 -54.7598 21.1001)" fill="#D9D9D9"/>
</mask>
<g mask="url(#mask0_503_526)">
<path fill-rule="evenodd" clip-rule="evenodd" d="M371.662 152.742C390.666 254.341 323.71 352.108 222.111 371.112C120.512 390.116 22.7449 323.159 3.74118 221.56C-15.2624 119.962 51.694 22.1946 153.293 3.1909C254.892 -15.8128 352.659 51.1437 371.662 152.742ZM340.623 158.55C356.42 243.006 300.761 324.278 216.304 340.075C131.847 355.873 50.5752 300.213 34.778 215.757C18.9805 131.3 74.6402 50.0278 159.096 34.2306C243.554 18.4331 324.826 74.0926 340.623 158.55Z" fill="url(#paint0_linear_503_526)"/>
</g>
<mask id="mask1_503_526" style="mask-type:alpha" maskUnits="userSpaceOnUse" x="-17" y="187" width="243" height="243">
<rect width="207.799" height="207.799" transform="matrix(0.183858 0.982953 0.982953 -0.183858 -16.5547 225.356)" fill="#D9D9D9"/>
</mask>
<g mask="url(#mask1_503_526)">
<path fill-rule="evenodd" clip-rule="evenodd" d="M371.662 152.742C390.666 254.341 323.71 352.108 222.111 371.112C120.512 390.116 22.7449 323.159 3.74118 221.56C-15.2624 119.962 51.694 22.1946 153.293 3.1909C254.892 -15.8128 352.659 51.1437 371.662 152.742ZM340.623 158.55C356.42 243.006 300.761 324.278 216.304 340.075C131.847 355.873 50.5752 300.213 34.778 215.757C18.9805 131.3 74.6402 50.0278 159.096 34.2306C243.554 18.4331 324.826 74.0926 340.623 158.55Z" fill="url(#paint1_linear_503_526)"/>
</g>
<mask id="mask2_503_526" style="mask-type:alpha" maskUnits="userSpaceOnUse" x="187" y="148" width="244" height="244">
<rect width="207.799" height="207.799" transform="matrix(0.183858 0.982953 0.982953 -0.183858 187.701 187.151)" fill="#D9D9D9"/>
</mask>
<g mask="url(#mask2_503_526)">
<path fill-rule="evenodd" clip-rule="evenodd" d="M371.662 152.742C390.666 254.341 323.71 352.108 222.111 371.112C120.512 390.116 22.7449 323.159 3.74118 221.56C-15.2624 119.962 51.694 22.1946 153.293 3.1909C254.892 -15.8128 352.659 51.1437 371.662 152.742ZM340.623 158.55C356.42 243.006 300.761 324.278 216.304 340.075C131.847 355.873 50.5752 300.213 34.778 215.757C18.9805 131.3 74.6402 50.0278 159.096 34.2306C243.554 18.4331 324.826 74.0926 340.623 158.55Z" fill="url(#paint2_linear_503_526)"/>
</g>
<mask id="mask3_503_526" style="mask-type:alpha" maskUnits="userSpaceOnUse" x="149" y="-56" width="243" height="244">
<rect width="207.799" height="207.799" transform="matrix(0.183858 0.982953 0.982953 -0.183858 149.496 -17.1055)" fill="#D9D9D9"/>
</mask>
<g mask="url(#mask3_503_526)">
<path fill-rule="evenodd" clip-rule="evenodd" d="M371.662 152.742C390.666 254.341 323.71 352.108 222.111 371.112C120.512 390.116 22.7449 323.159 3.74118 221.56C-15.2624 119.962 51.694 22.1946 153.293 3.1909C254.892 -15.8128 352.659 51.1437 371.662 152.742ZM340.623 158.55C356.42 243.006 300.761 324.278 216.304 340.075C131.847 355.873 50.5752 300.213 34.778 215.757C18.9805 131.3 74.6402 50.0278 159.096 34.2306C243.554 18.4331 324.826 74.0926 340.623 158.55Z" fill="url(#paint3_linear_503_526)"/>
</g>
<path d="M332.611 305.546C337.973 298.694 336.765 288.792 329.913 283.43C323.061 278.068 313.159 279.276 307.797 286.128C302.435 292.98 303.643 302.882 310.495 308.244C317.347 313.606 327.249 312.398 332.611 305.546Z" fill="#2F1568"/>
<path d="M285.161 165.091L273.723 172.925L271.598 180.8L273.723 188.612L285.161 196.6H97.7637V165.091H285.161Z" fill="url(#paint4_linear_503_526)"/>
<path d="M81.666 190.75L91.9064 200.303L97.4204 201.272L102.935 200.303L113.175 190.75V253.582H81.666V190.75Z" fill="url(#paint5_linear_503_526)"/>
<path d="M97.7639 202.54C109.728 202.54 119.426 192.842 119.426 180.878C119.426 168.914 109.728 159.216 97.7639 159.216C85.8001 159.216 76.1016 168.914 76.1016 180.878C76.1016 192.842 85.8001 202.54 97.7639 202.54Z" fill="#2F1568"/>
<path fill-rule="evenodd" clip-rule="evenodd" d="M284.902 192.236C291.193 192.236 296.293 187.137 296.293 180.846C296.293 174.555 291.193 169.455 284.902 169.455C278.611 169.455 273.512 174.555 273.512 180.846C273.512 187.137 278.611 192.236 284.902 192.236ZM284.902 196.6C293.603 196.6 300.657 189.547 300.657 180.846C300.657 172.145 293.603 165.091 284.902 165.091C276.201 165.091 269.148 172.145 269.148 180.846C269.148 189.547 276.201 196.6 284.902 196.6Z" fill="#57369B"/>
<path fill-rule="evenodd" clip-rule="evenodd" d="M152.569 125.705H152.561V299.307L160.043 289.395L168.535 286.555L175.674 290.087L184.069 299.307V126.689H184.077C184.075 126.577 184.074 126.464 184.074 126.351C184.074 111.333 196.857 99.1592 212.625 99.1592C219.152 99.1592 225.168 101.245 229.977 104.755L229.768 97.3673L229.347 86.4661L241.782 82.3802L248.203 79.0633C238.202 71.4996 225.744 67.0132 212.239 67.0132C179.609 67.0132 153.095 93.2004 152.569 125.705Z" fill="url(#paint6_linear_503_526)"/>
<path d="M97.4204 144.136C106.121 144.136 113.175 137.083 113.175 128.382C113.175 119.681 106.121 112.627 97.4204 112.627C88.7195 112.627 81.666 119.681 81.666 128.382C81.666 137.083 88.7195 144.136 97.4204 144.136Z" fill="#57369B"/>
<path d="M97.4204 268.702C106.121 268.702 113.175 261.649 113.175 252.948C113.175 244.247 106.121 237.194 97.4204 237.194C88.7195 237.194 81.666 244.247 81.666 252.948C81.666 261.649 88.7195 268.702 97.4204 268.702Z" fill="#2A5CCF"/>
<path d="M239.209 107.751C247.91 107.751 254.964 100.697 254.964 91.9966C254.964 83.2957 247.91 76.2422 239.209 76.2422C230.509 76.2422 223.455 83.2957 223.455 91.9966C223.455 100.697 230.509 107.751 239.209 107.751Z" fill="#2A5CCF"/>
<path d="M168.315 314.183C177.016 314.183 184.069 307.13 184.069 298.429C184.069 289.728 177.016 282.675 168.315 282.675C159.614 282.675 152.561 289.728 152.561 298.429C152.561 307.13 159.614 314.183 168.315 314.183Z" fill="#2A5CCF"/>
<path fill-rule="evenodd" clip-rule="evenodd" d="M255.314 223.738C255.313 223.827 255.312 223.917 255.312 224.006C255.312 234.849 263.738 243.724 274.4 244.44L271.584 275.813C244.652 273.698 223.455 251.173 223.455 223.697C223.455 223.614 223.456 223.532 223.456 223.449L223.455 143.266L233.695 156.883L239.209 158.264L244.723 156.883L254.963 143.266V175.626L254.951 175.633L255.314 223.737V223.738Z" fill="url(#paint7_radial_503_526)"/>
<path d="M239.209 158.783C247.91 158.783 254.964 151.73 254.964 143.029C254.964 134.328 247.91 127.274 239.209 127.274C230.509 127.274 223.455 134.328 223.455 143.029C223.455 151.73 230.509 158.783 239.209 158.783Z" fill="#2A5CCF"/>
<path d="M272.903 275.878C281.604 275.878 288.657 268.825 288.657 260.124C288.657 251.423 281.604 244.37 272.903 244.37C264.202 244.37 257.148 251.423 257.148 260.124C257.148 268.825 264.202 275.878 272.903 275.878Z" fill="#2A5CCF"/>
<path d="M452.904 163.77C452.904 162.609 453.356 161.494 454.165 160.661C454.973 159.828 456.074 159.344 457.234 159.311H459.145C460.102 159.403 461.067 159.304 461.985 159.019C462.904 158.735 463.756 158.271 464.494 157.654C465.674 156.037 466.218 154.041 466.022 152.048V62.86C466.236 60.905 465.689 58.9428 464.494 57.3812C462.973 56.194 461.07 55.6048 459.145 55.7249H457.234C456.666 55.7249 456.103 55.6128 455.577 55.3951C455.052 55.1774 454.575 54.8583 454.173 54.4561C453.77 54.0538 453.452 53.5763 453.234 53.0507C453.016 52.5251 452.904 51.9618 452.904 51.3929V48.5898C452.904 48.0209 453.016 47.4576 453.234 46.932C453.452 46.4065 453.77 45.9289 454.173 45.5266C454.575 45.1244 455.052 44.8053 455.577 44.5876C456.103 44.3699 456.666 44.2578 457.234 44.2578H490.348C491.508 44.2573 492.623 44.7097 493.455 45.5186C494.288 46.3275 494.772 47.4293 494.805 48.5898V51.3929C494.772 52.5534 494.288 53.6552 493.455 54.4641C492.623 55.2731 491.508 55.7254 490.348 55.7249H488.564C486.633 55.5533 484.712 56.1482 483.215 57.3812C482.021 58.9428 481.473 60.905 481.687 62.86V152.048C481.486 154.002 482.032 155.96 483.215 157.527C484.737 158.702 486.652 159.25 488.564 159.056H490.348C491.53 159.056 492.663 159.526 493.499 160.362C494.335 161.198 494.805 162.333 494.805 163.515V166.318C494.772 167.479 494.288 168.581 493.455 169.39C492.623 170.199 491.508 170.651 490.348 170.65H457.234C456.666 170.65 456.103 170.538 455.577 170.321C455.052 170.103 454.575 169.784 454.173 169.382C453.77 168.979 453.452 168.502 453.234 167.976C453.016 167.451 452.904 166.887 452.904 166.318V163.77Z" fill="#12285B"/>
<path d="M506.777 163.77C506.777 162.609 507.229 161.494 508.038 160.661C508.846 159.828 509.948 159.344 511.108 159.31H513.018C513.956 159.415 514.905 159.321 515.804 159.036C516.704 158.751 517.533 158.28 518.24 157.654C519.465 156.054 520.055 154.057 519.895 152.048V95.7319C520.055 93.7227 519.465 91.7256 518.24 90.1258C517.533 89.5 516.704 89.0292 515.804 88.7439C514.905 88.4586 513.956 88.3651 513.018 88.4695H511.108C509.959 88.4695 508.858 88.013 508.046 87.2006C507.234 86.3882 506.777 85.2864 506.777 84.1375V81.3344C506.777 80.1734 507.229 79.0581 508.038 78.2253C508.846 77.3926 509.948 76.9082 511.108 76.875H526.773C527.878 76.8731 528.943 77.2943 529.748 78.0524C530.553 78.8105 531.038 79.848 531.103 80.9522L531.994 90.2532C535.879 84.8335 541.041 80.457 547.022 77.512C553.509 74.7967 560.499 73.4937 567.527 73.6897C571.767 73.3557 576.029 73.9332 580.027 75.3837C584.025 76.8341 587.666 79.1238 590.706 82.0989C596.218 88.8141 598.952 97.3845 598.348 106.052V151.793C598.152 153.786 598.696 155.782 599.876 157.399C600.582 158.025 601.412 158.496 602.311 158.781C603.211 159.066 604.16 159.16 605.098 159.056H607.008C608.19 159.056 609.324 159.525 610.16 160.362C610.996 161.198 611.466 162.332 611.466 163.515V166.318C611.432 167.479 610.948 168.58 610.116 169.389C609.283 170.198 608.169 170.651 607.008 170.65H598.985C594.593 170.65 590.382 168.905 587.277 165.799C584.172 162.692 582.428 158.479 582.428 154.087V106.435C582.93 100.78 581.294 95.1421 577.843 90.6355C575.797 88.8047 573.394 87.418 570.786 86.5628C568.177 85.7075 565.42 85.4023 562.688 85.6664C555.65 85.4867 548.782 87.8374 543.329 92.2918C540.72 94.5049 538.652 97.286 537.284 100.422C535.915 103.558 535.282 106.966 535.433 110.384V152.048C535.237 154.041 535.781 156.037 536.961 157.654C537.663 158.287 538.492 158.762 539.393 159.048C540.293 159.333 541.245 159.423 542.183 159.31H544.221C545.381 159.344 546.482 159.828 547.291 160.661C548.099 161.494 548.551 162.609 548.551 163.77V166.573C548.551 167.722 548.095 168.824 547.282 169.636C546.47 170.449 545.369 170.905 544.221 170.905H511.108C509.959 170.905 508.858 170.449 508.046 169.636C507.234 168.824 506.777 167.722 506.777 166.573V163.77Z" fill="#12285B"/>
<path d="M639.739 166.955C639.643 168.036 639.145 169.042 638.343 169.774C637.541 170.505 636.494 170.909 635.409 170.905H630.824C629.664 170.905 628.549 170.453 627.716 169.644C626.884 168.835 626.4 167.733 626.367 166.573V61.203C626.638 58.9006 626.146 56.5727 624.966 54.5776C624.146 53.8821 623.19 53.3644 622.16 53.0574C621.129 52.7503 620.047 52.6606 618.98 52.7938H615.414V45.6587C615.447 44.4982 615.931 43.3964 616.764 42.5875C617.596 41.7786 618.711 41.3262 619.871 41.3267H626.749C628.76 41.3097 630.755 41.6936 632.617 42.4559C634.479 43.2183 636.171 44.3439 637.593 45.767C639.016 47.1902 640.141 48.8824 640.903 50.7451C641.665 52.6078 642.049 54.6036 642.032 56.6161V89.998C645.909 84.6318 651.09 80.3421 657.083 77.5333C663.077 74.7246 669.688 73.4893 676.291 73.9441C681.93 73.5622 687.579 74.517 692.78 76.7309C697.98 78.9449 702.585 82.3554 706.22 86.6853C713.861 97.6668 717.544 110.921 716.663 124.272C717.471 137.379 713.386 150.318 705.201 160.584C701.287 164.877 696.469 168.247 691.095 170.45C685.721 172.654 679.925 173.636 674.126 173.325C664.438 173.842 654.931 170.55 647.635 164.152C647.053 163.446 646.268 162.936 645.386 162.691C644.504 162.447 643.568 162.48 642.706 162.787C641.844 163.093 641.096 163.657 640.565 164.403C640.035 165.148 639.746 166.039 639.739 166.955ZM694.248 152.94C699.838 144.428 702.437 134.297 701.635 124.144C702.464 113.863 699.964 103.589 694.503 94.8397C691.726 91.6176 688.22 89.1045 684.278 87.509C680.335 85.9136 676.069 85.2818 671.833 85.666C666.659 85.6181 661.563 86.9366 657.06 89.4884C652.485 92.1537 648.738 96.0346 646.234 100.701C643.352 105.967 641.902 111.898 642.032 117.901V129.496C641.968 135.202 643.279 140.839 645.852 145.932C648.289 150.738 651.987 154.79 656.55 157.654C661.114 160.556 666.426 162.062 671.833 161.986C676.016 162.334 680.222 161.697 684.115 160.126C688.007 158.555 691.478 156.094 694.248 152.94Z" fill="#12285B"/>
<path d="M736.783 160.584C728.522 150.303 724.39 137.31 725.194 124.144C724.428 110.865 728.551 97.7658 736.783 87.3218C746.57 78.7124 759.156 73.9639 772.189 73.9639C785.221 73.9639 797.807 78.7124 807.594 87.3218C815.869 97.7431 819.998 110.859 819.184 124.144C819.988 137.31 815.855 150.303 807.594 160.584C797.803 169.133 785.248 173.844 772.252 173.844C759.257 173.844 746.701 169.133 736.911 160.584H736.783ZM804.028 124.144C804.809 113.901 801.969 103.71 796.005 95.3487C793.001 92.034 789.287 89.4414 785.141 87.7646C780.995 86.0878 776.524 85.3702 772.061 85.6654C750.792 85.6654 740.222 98.4066 740.222 123.889C740.222 149.371 750.792 162.112 772.061 162.112C793.33 162.112 804.538 149.371 804.538 124.144H804.028Z" fill="#12285B"/>
<path d="M846.951 165.426C844.055 162.18 841.833 158.392 840.412 154.28C838.991 150.168 838.4 145.815 838.673 141.473V95.4771C838.829 93.5669 838.286 91.665 837.144 90.1258C836.419 89.4899 835.568 89.0137 834.646 88.7284C833.725 88.443 832.753 88.3548 831.795 88.4695H829.885C829.316 88.4695 828.753 88.3574 828.228 88.1397C827.703 87.922 827.225 87.6029 826.823 87.2007C826.421 86.7984 826.102 86.3208 825.885 85.7952C825.667 85.2697 825.555 84.7064 825.555 84.1375V81.3344C825.554 80.1734 826.007 79.0581 826.815 78.2253C827.624 77.3926 828.725 76.9082 829.885 76.875H838.673C843.064 76.875 847.275 78.6201 850.38 81.7263C853.485 84.8326 855.229 89.0456 855.229 93.4385V141.345C854.732 144.195 854.93 147.122 855.806 149.878C856.682 152.634 858.21 155.139 860.26 157.177C862.311 159.216 864.823 160.73 867.584 161.589C870.344 162.449 873.271 162.628 876.116 162.114C882.759 162.457 889.294 160.323 894.456 156.125C896.935 153.631 898.854 150.636 900.084 147.34C901.314 144.044 901.827 140.523 901.588 137.013V95.4771C901.8 93.5413 901.303 91.5942 900.187 89.9984C898.716 88.8185 896.839 88.2688 894.965 88.4695H892.927C891.767 88.4699 890.652 88.0176 889.82 87.2087C888.987 86.3998 888.503 85.298 888.47 84.1375V81.3344C888.47 80.1517 888.939 79.0174 889.775 78.1811C890.611 77.3448 891.745 76.875 892.927 76.875H912.923C914.083 76.9082 915.184 77.3926 915.992 78.2253C916.801 79.0581 917.253 80.1734 917.253 81.3344V152.303C917.133 154.229 917.722 156.133 918.908 157.654C919.665 158.281 920.539 158.75 921.48 159.034C922.42 159.319 923.408 159.413 924.385 159.31H926.04C927.2 159.344 928.302 159.828 929.11 160.661C929.919 161.494 930.371 162.609 930.37 163.77V166.573C930.37 167.722 929.914 168.824 929.102 169.636C928.29 170.449 927.189 170.905 926.04 170.905H910.375C909.284 170.885 908.236 170.477 907.418 169.753C906.601 169.028 906.069 168.037 905.918 166.955L905.154 157.909C901.347 163.043 896.369 167.193 890.635 170.013C884.377 172.743 877.591 174.049 870.767 173.835C866.433 174.148 862.08 173.563 857.982 172.116C853.884 170.669 850.129 168.392 846.951 165.426Z" fill="#12285B"/>
<path d="M941.32 163.77C941.32 162.588 941.79 161.453 942.626 160.617C943.461 159.781 944.595 159.311 945.777 159.311H947.561C948.518 159.425 949.49 159.337 950.411 159.052C951.333 158.767 952.184 158.29 952.91 157.654C954.09 156.037 954.634 154.041 954.438 152.048V95.7323C954.634 93.7392 954.09 91.7437 952.91 90.1261C952.184 89.4902 951.333 89.0141 950.411 88.7287C949.49 88.4433 948.518 88.3551 947.561 88.4698H945.777C944.617 88.4703 943.502 88.018 942.67 87.209C941.837 86.4001 941.353 85.2983 941.32 84.1378V81.3347C941.32 80.152 941.79 79.0178 942.626 78.1815C943.461 77.3452 944.595 76.8753 945.777 76.8753H961.442C962.539 76.9027 963.587 77.3337 964.386 78.086C965.185 78.8383 965.679 79.8589 965.773 80.9525L966.664 90.2536C970.517 84.8044 975.687 80.4209 981.692 77.5124C988.179 74.797 995.168 73.494 1002.2 73.69C1006.42 73.3494 1010.66 73.9244 1014.64 75.3757C1018.62 76.827 1022.24 79.1204 1025.25 82.0992C1030.76 88.8144 1033.5 97.3849 1032.89 106.053V151.793C1032.73 153.803 1033.32 155.8 1034.55 157.4C1035.25 158.025 1036.08 158.496 1036.98 158.782C1037.88 159.067 1038.83 159.16 1039.77 159.056H1041.68C1042.84 159.089 1043.94 159.574 1044.75 160.406C1045.56 161.239 1046.01 162.354 1046.01 163.515V166.318C1046.01 166.887 1045.9 167.451 1045.68 167.976C1045.46 168.502 1045.14 168.979 1044.74 169.382C1044.34 169.784 1043.86 170.103 1043.34 170.321C1042.81 170.538 1042.25 170.65 1041.68 170.65H1033.66C1029.26 170.65 1025.05 168.905 1021.95 165.799C1018.84 162.693 1017.1 158.48 1017.1 154.087V106.435C1017.6 100.78 1015.97 95.1425 1012.51 90.6358C1010.47 88.8051 1008.06 87.4183 1005.46 86.5631C1002.85 85.7079 1000.09 85.4026 997.357 85.6667C990.318 85.4756 983.446 87.8277 977.999 92.2921C975.39 94.5053 973.322 97.2863 971.954 100.422C970.585 103.558 969.952 106.966 970.103 110.385V152.048C969.907 154.041 970.451 156.037 971.631 157.654C972.304 158.292 973.11 158.771 973.992 159.057C974.873 159.344 975.807 159.43 976.725 159.311H978.763C979.923 159.344 981.025 159.828 981.833 160.661C982.642 161.494 983.094 162.609 983.093 163.77V166.573C983.093 167.722 982.637 168.824 981.825 169.636C981.013 170.449 979.912 170.905 978.763 170.905H945.65C944.49 170.906 943.375 170.453 942.542 169.645C941.71 168.836 941.226 167.734 941.193 166.573L941.32 163.77Z" fill="#12285B"/>
<path d="M1061.16 161.222C1053.36 150.835 1049.52 138.003 1050.34 125.037C1049.58 111.642 1053.4 98.3873 1061.16 87.4503C1064.88 82.9674 1069.59 79.4126 1074.92 77.0682C1080.24 74.7237 1086.04 73.6543 1091.86 73.9446C1098.74 73.7619 1105.58 74.9755 1111.98 77.5122C1117.31 80.0471 1121.75 84.1328 1124.72 89.2341V61.8405C1124.96 59.4018 1124.42 56.9484 1123.19 54.8329C1122.4 54.0369 1121.44 53.4377 1120.37 53.0835C1119.31 52.7293 1118.18 52.6303 1117.07 52.7943H1113.25V41.4546H1124.97C1126.99 41.4378 1128.99 41.8209 1130.86 42.5817C1132.73 43.3425 1134.43 44.4661 1135.86 45.8875C1137.29 47.3089 1138.43 49.0001 1139.21 50.8635C1139.98 52.7268 1140.38 54.7255 1140.38 56.7441V151.793C1140.17 153.874 1140.61 155.969 1141.65 157.782C1142.3 158.416 1143.09 158.895 1143.95 159.182C1144.81 159.469 1145.72 159.556 1146.62 159.438H1150.95V166.7C1150.92 167.861 1150.43 168.963 1149.6 169.772C1148.77 170.581 1147.65 171.033 1146.49 171.032H1131.59C1130.53 171.04 1129.5 170.654 1128.7 169.949C1127.9 169.244 1127.39 168.269 1127.26 167.21C1127.17 166.413 1126.86 165.656 1126.37 165.024C1125.87 164.393 1125.21 163.912 1124.46 163.634C1123.71 163.357 1122.89 163.294 1122.1 163.453C1121.32 163.612 1120.59 163.986 1120 164.534C1117.51 166.897 1114.68 168.873 1111.6 170.395C1105.19 173.238 1098.23 174.631 1091.22 174.473C1085.54 174.639 1079.9 173.536 1074.7 171.243C1069.5 168.951 1064.87 165.527 1061.16 161.222ZM1116.57 152.813C1122.34 146.107 1125.35 137.45 1124.97 128.604V117.902C1125.5 109.179 1122.62 100.593 1116.95 93.9483C1114.18 91.0568 1110.83 88.7885 1107.12 87.2945C1103.41 85.8005 1099.42 85.1152 1095.42 85.2843C1091.15 84.9823 1086.86 85.703 1082.92 87.3868C1078.98 89.0706 1075.49 91.6692 1072.75 94.9676C1067.2 103.826 1064.61 114.225 1065.37 124.655C1064.6 134.528 1067.11 144.378 1072.5 152.685C1075.18 155.815 1078.56 158.266 1082.37 159.838C1086.17 161.41 1090.3 162.059 1094.41 161.731C1098.52 161.91 1102.63 161.207 1106.45 159.669C1110.27 158.13 1113.72 155.793 1116.57 152.813Z" fill="#12285B"/>
<path d="M452.905 321.76C452.887 321.253 452.974 320.748 453.16 320.276C453.345 319.804 453.626 319.376 453.985 319.017C454.343 318.659 454.771 318.378 455.243 318.192C455.714 318.006 456.219 317.919 456.726 317.937H459.146C460.102 318.029 461.068 317.93 461.986 317.646C462.904 317.361 463.757 316.898 464.495 316.281C465.675 314.663 466.219 312.668 466.023 310.675V221.486C466.199 219.535 465.655 217.586 464.495 216.008C462.956 214.866 461.055 214.322 459.146 214.479H456.598C456.092 214.497 455.587 214.41 455.116 214.224C454.644 214.038 454.216 213.757 453.857 213.399C453.499 213.04 453.218 212.612 453.032 212.14C452.847 211.668 452.76 211.163 452.778 210.656V207.089C452.778 206.075 453.18 205.103 453.897 204.386C454.613 203.669 455.585 203.267 456.598 203.267H540.145C541.148 203.298 542.102 203.711 542.812 204.421C543.521 205.132 543.934 206.085 543.966 207.089V222.251C543.934 223.255 543.521 224.208 542.812 224.918C542.102 225.628 541.148 226.041 540.145 226.073H529.829V221.104C529.928 220.147 529.833 219.179 529.548 218.259C529.264 217.34 528.796 216.487 528.174 215.753C526.557 214.572 524.562 214.028 522.57 214.224H485.509C484.495 214.224 483.524 214.627 482.807 215.344C482.09 216.06 481.688 217.033 481.688 218.046V256.27C481.688 257.284 482.09 258.256 482.807 258.973C483.524 259.69 484.495 260.092 485.509 260.092H515.438C516.451 260.092 517.423 260.495 518.139 261.212C518.856 261.929 519.258 262.901 519.258 263.915V267.737C519.258 268.751 518.856 269.723 518.139 270.44C517.423 271.157 516.451 271.559 515.438 271.559H496.461C492.61 271.659 488.95 273.26 486.261 276.021C483.573 278.782 482.069 282.485 482.07 286.339V310.802C481.894 312.754 482.437 314.703 483.598 316.281C485.12 317.456 487.034 318.004 488.947 317.81H491.367C492.38 317.81 493.352 318.213 494.069 318.929C494.785 319.646 495.188 320.618 495.188 321.632V325.582C495.156 326.586 494.743 327.539 494.033 328.249C493.324 328.96 492.37 329.372 491.367 329.404H456.598C455.585 329.404 454.613 329.002 453.897 328.285C453.18 327.568 452.778 326.596 452.778 325.582L452.905 321.76Z" fill="#223D7C"/>
<path d="M550.205 321.759C550.187 321.252 550.274 320.747 550.46 320.275C550.645 319.803 550.926 319.375 551.284 319.016C551.643 318.658 552.071 318.377 552.543 318.191C553.014 318.005 553.519 317.919 554.026 317.936H556.445C557.403 318.036 558.37 317.94 559.289 317.655C560.209 317.371 561.061 316.903 561.795 316.28C562.975 314.662 563.519 312.667 563.323 310.674V253.976C563.524 252.022 562.978 250.064 561.795 248.497C560.267 247.333 558.357 246.787 556.445 246.968H554.026C553.012 246.968 552.041 246.565 551.324 245.848C550.607 245.132 550.205 244.159 550.205 243.146V239.196C550.187 238.689 550.274 238.184 550.46 237.712C550.645 237.24 550.926 236.812 551.284 236.453C551.643 236.095 552.071 235.814 552.543 235.628C553.014 235.442 553.519 235.356 554.026 235.373H575.167C576.18 235.373 577.152 235.776 577.869 236.493C578.585 237.21 578.988 238.182 578.988 239.196V310.801C578.812 312.753 579.355 314.702 580.516 316.28C582.038 317.455 583.952 318.003 585.865 317.809H588.285C589.298 317.809 590.27 318.212 590.987 318.928C591.703 319.645 592.106 320.618 592.106 321.631V325.581C592.074 326.585 591.661 327.539 590.951 328.249C590.242 328.959 589.288 329.371 588.285 329.403H554.026C553.012 329.403 552.041 329.001 551.324 328.284C550.607 327.567 550.205 326.595 550.205 325.581V321.759ZM570.073 204.795H572.238C573.229 204.777 574.214 204.96 575.134 205.332C576.053 205.703 576.888 206.256 577.59 206.958C578.291 207.659 578.844 208.495 579.215 209.415C579.587 210.335 579.769 211.32 579.752 212.312C579.769 213.304 579.587 214.289 579.215 215.209C578.844 216.129 578.291 216.964 577.59 217.666C576.888 218.367 576.053 218.92 575.134 219.292C574.214 219.664 573.229 219.846 572.238 219.829H570.073C569.081 219.846 568.096 219.664 567.177 219.292C566.258 218.92 565.422 218.367 564.721 217.666C564.02 216.964 563.467 216.129 563.096 215.209C562.724 214.289 562.541 213.304 562.559 212.312C562.524 211.309 562.694 210.31 563.057 209.375C563.421 208.441 563.971 207.59 564.674 206.875C565.377 206.159 566.218 205.595 567.146 205.215C568.075 204.836 569.07 204.649 570.073 204.667V204.795Z" fill="#223D7C"/>
<path d="M607.516 321.76C607.516 320.746 607.919 319.774 608.635 319.057C609.352 318.341 610.324 317.938 611.337 317.938H613.757C614.715 318.053 615.686 317.964 616.608 317.679C617.529 317.394 618.38 316.917 619.106 316.282C620.286 314.664 620.83 312.668 620.634 310.675V254.232C620.83 252.239 620.286 250.243 619.106 248.626C618.38 247.99 617.529 247.514 616.608 247.228C615.686 246.943 614.715 246.855 613.757 246.97H611.337C610.334 246.938 609.38 246.525 608.671 245.815C607.961 245.105 607.548 244.151 607.516 243.147V239.197C607.516 238.184 607.919 237.211 608.635 236.495C609.352 235.778 610.324 235.375 611.337 235.375H628.148C629.091 235.398 629.994 235.757 630.695 236.388C631.396 237.019 631.848 237.88 631.969 238.815L632.733 248.753C636.626 243.291 641.84 238.907 647.889 236.012C654.375 233.297 661.365 231.994 668.393 232.19C672.602 231.866 676.832 232.436 680.805 233.864C684.778 235.291 688.404 237.543 691.445 240.472C696.942 247.244 699.672 255.848 699.087 264.552V310.293C698.974 311.291 699.063 312.301 699.348 313.264C699.632 314.227 700.106 315.123 700.742 315.899C701.449 316.525 702.278 316.996 703.178 317.281C704.077 317.566 705.026 317.66 705.964 317.556H708.384C708.89 317.538 709.395 317.625 709.867 317.81C710.338 317.996 710.767 318.277 711.125 318.636C711.483 318.994 711.764 319.423 711.95 319.894C712.136 320.366 712.222 320.871 712.205 321.378V325.328C712.205 326.341 711.802 327.314 711.085 328.031C710.369 328.747 709.397 329.15 708.384 329.15H699.214C697.113 329.15 695.032 328.734 693.092 327.926C691.153 327.117 689.392 325.933 687.912 324.44C686.432 322.948 685.262 321.177 684.469 319.23C683.677 317.283 683.278 315.198 683.294 313.096V264.68C683.809 259.024 682.172 253.382 678.709 248.881C676.663 247.05 674.26 245.663 671.652 244.808C669.043 243.953 666.286 243.648 663.554 243.912C656.504 243.65 649.608 246.01 644.195 250.537C641.572 252.738 639.493 255.516 638.123 258.655C636.753 261.795 636.129 265.209 636.299 268.63V310.293C636.103 312.286 636.647 314.282 637.828 315.899C638.501 316.536 639.307 317.016 640.188 317.302C641.069 317.589 642.003 317.675 642.922 317.556H645.596C646.103 317.538 646.608 317.625 647.079 317.81C647.551 317.996 647.979 318.277 648.338 318.636C648.696 318.994 648.977 319.423 649.163 319.894C649.348 320.366 649.435 320.871 649.417 321.378V325.328C649.417 326.341 649.015 327.314 648.298 328.031C647.582 328.747 646.61 329.15 645.596 329.15H611.337C610.334 329.118 609.38 328.705 608.671 327.995C607.961 327.285 607.548 326.331 607.516 325.328V321.76Z" fill="#223D7C"/>
<path d="M742.133 321.762C742.133 320.748 742.536 319.776 743.252 319.059C743.969 318.342 744.941 317.94 745.954 317.94H747.864C748.85 318.2 749.886 318.203 750.874 317.95C751.862 317.697 752.769 317.196 753.509 316.494C754.249 315.792 754.797 314.913 755.102 313.939C755.407 312.966 755.458 311.931 755.251 310.932V218.049C755.251 217.035 754.848 216.063 754.132 215.346C753.415 214.629 752.444 214.226 751.43 214.226H734.746C732.754 214.03 730.76 214.574 729.143 215.755C728.52 216.489 728.052 217.342 727.768 218.262C727.483 219.181 727.388 220.149 727.487 221.107V223.018C727.487 223.514 727.388 224.005 727.194 224.462C727.001 224.919 726.717 225.332 726.361 225.677C726.004 226.021 725.582 226.291 725.119 226.469C724.656 226.647 724.162 226.73 723.666 226.713H718.954C717.962 226.713 717.009 226.328 716.296 225.639C715.583 224.949 715.166 224.009 715.133 223.018V207.091C715.133 206.077 715.536 205.105 716.252 204.388C716.969 203.672 717.941 203.269 718.954 203.269H807.213C807.719 203.251 808.224 203.338 808.696 203.524C809.168 203.709 809.596 203.99 809.954 204.349C810.313 204.707 810.593 205.136 810.779 205.608C810.965 206.079 811.052 206.584 811.034 207.091V223.4C811.034 223.896 810.934 224.387 810.741 224.844C810.547 225.301 810.264 225.714 809.907 226.059C809.551 226.404 809.128 226.673 808.666 226.851C808.203 227.029 807.709 227.112 807.213 227.095H802.373C801.878 227.112 801.384 227.029 800.921 226.851C800.458 226.673 800.036 226.404 799.679 226.059C799.323 225.714 799.039 225.301 798.845 224.844C798.652 224.387 798.552 223.896 798.553 223.4V221.107C798.733 219.194 798.188 217.284 797.024 215.755C795.363 214.566 793.326 214.022 791.293 214.226H774.991C773.988 214.258 773.035 214.671 772.325 215.381C771.615 216.091 771.203 217.045 771.171 218.049V310.804C771.079 311.762 771.178 312.728 771.462 313.646C771.746 314.565 772.21 315.418 772.826 316.156C773.637 316.819 774.576 317.308 775.584 317.593C776.591 317.878 777.647 317.952 778.685 317.812H780.468C780.974 317.794 781.479 317.881 781.951 318.067C782.422 318.253 782.851 318.534 783.209 318.892C783.567 319.251 783.848 319.679 784.034 320.151C784.22 320.623 784.306 321.128 784.289 321.634V325.584C784.289 326.598 783.886 327.57 783.17 328.287C782.453 329.004 781.481 329.407 780.468 329.407H745.954C744.951 329.375 743.997 328.962 743.288 328.252C742.578 327.542 742.165 326.588 742.133 325.584V321.762Z" fill="#223D7C"/>
<path d="M816.509 319.849C812.006 315.049 808.548 309.365 806.356 303.158C804.164 296.951 803.284 290.356 803.774 283.791C802.933 269.884 807.496 256.189 816.509 245.568C821.024 241.146 826.42 237.726 832.345 235.53C838.27 233.335 844.591 232.414 850.896 232.827C856.874 232.434 862.866 233.373 868.437 235.576C874.009 237.779 879.023 241.192 883.118 245.568C890.8 255.033 894.662 267.033 893.943 279.204V283.536C893.961 284.043 893.874 284.548 893.688 285.02C893.503 285.492 893.222 285.92 892.864 286.279C892.505 286.637 892.077 286.918 891.605 287.104C891.134 287.29 890.629 287.377 890.122 287.359H838.67C835.695 287.307 832.775 288.155 830.29 289.791C827.805 291.427 825.872 293.776 824.743 296.53C823.615 299.283 823.343 302.313 823.965 305.224C824.586 308.134 826.072 310.789 828.226 312.841C834.691 318.26 842.986 320.996 851.405 320.486C856.228 320.57 861.048 320.186 865.797 319.339C868.575 318.673 871.267 317.69 873.82 316.409C874.444 316.079 874.965 315.584 875.325 314.976C875.684 314.369 875.869 313.674 875.858 312.969C875.858 311.955 876.261 310.983 876.977 310.266C877.694 309.549 878.666 309.146 879.679 309.146H886.301C887.315 309.146 888.287 309.549 889.003 310.266C889.72 310.983 890.122 311.955 890.122 312.969V321.76C884.765 325.368 878.878 328.12 872.674 329.914C865.663 331.825 858.416 332.726 851.151 332.59C844.822 332.857 838.503 331.869 832.557 329.682C826.612 327.496 821.158 324.154 816.509 319.849ZM874.457 276.529C874.987 276.513 875.508 276.39 875.99 276.168C876.471 275.947 876.903 275.63 877.26 275.238C877.616 274.845 877.89 274.385 878.065 273.885C878.24 273.384 878.312 272.853 878.278 272.324C878.289 265.035 875.869 257.951 871.401 252.193C868.604 249.344 865.214 247.148 861.471 245.76C857.729 244.373 853.727 243.828 849.75 244.166C845.552 243.896 841.344 244.529 837.412 246.024C833.479 247.518 829.912 249.839 826.953 252.83C822.262 258.279 819.527 265.141 819.184 272.324C819.149 272.853 819.222 273.384 819.397 273.885C819.572 274.385 819.846 274.845 820.202 275.238C820.559 275.63 820.991 275.947 821.472 276.168C821.954 276.39 822.475 276.513 823.005 276.529H874.457Z" fill="#223D7C"/>
<path d="M928.968 326.474C921.611 322.68 915.507 316.84 911.393 309.656C906.973 301.671 904.733 292.662 904.897 283.536C904.434 276.779 905.322 269.998 907.509 263.588C909.695 257.178 913.137 251.268 917.633 246.204C922.283 241.549 927.863 237.929 934.008 235.58C940.154 233.23 946.725 232.205 953.293 232.571C960.267 232.393 967.227 233.296 973.925 235.247C979.637 237.087 985.014 239.841 989.845 243.401V256.143C989.863 256.649 989.776 257.154 989.591 257.626C989.405 258.098 989.124 258.526 988.766 258.885C988.407 259.244 987.979 259.524 987.507 259.71C987.036 259.896 986.531 259.983 986.024 259.965H978.765C977.752 259.965 976.78 259.562 976.063 258.845C975.347 258.129 974.944 257.156 974.944 256.143V251.556C974.955 250.85 974.771 250.155 974.411 249.548C974.051 248.941 973.53 248.445 972.906 248.116C970.71 246.96 968.407 246.021 966.029 245.313C961.848 244.393 957.574 243.965 953.293 244.039C948.878 243.891 944.481 244.665 940.38 246.31C936.28 247.955 932.567 250.436 929.477 253.594C925.972 257.697 923.321 262.459 921.681 267.601C920.041 272.743 919.444 278.16 919.925 283.536C919.356 288.446 919.871 293.42 921.435 298.109C922.998 302.797 925.571 307.085 928.972 310.67C932.373 314.255 936.519 317.049 941.118 318.855C945.716 320.661 950.655 321.435 955.586 321.123C960.815 321.245 966.038 320.688 971.123 319.466C974.446 318.628 977.653 317.387 980.675 315.771C981.083 315.521 981.537 315.355 982.01 315.283C982.483 315.211 982.965 315.236 983.429 315.355C983.892 315.473 984.327 315.684 984.707 315.975C985.088 316.265 985.406 316.63 985.642 317.045L987.807 320.486C988.074 320.933 988.246 321.431 988.313 321.948C988.381 322.465 988.341 322.99 988.198 323.491C988.055 323.993 987.811 324.459 987.481 324.863C987.151 325.266 986.742 325.598 986.279 325.837C982.264 328.063 977.985 329.775 973.543 330.933C967.061 332.356 960.439 333.04 953.803 332.972C945.114 332.896 936.581 330.664 928.968 326.474Z" fill="#223D7C"/>
<path d="M1001.82 321.759C1001.8 321.253 1001.89 320.748 1002.07 320.276C1002.26 319.804 1002.54 319.375 1002.9 319.017C1003.26 318.658 1003.68 318.377 1004.16 318.192C1004.63 318.006 1005.13 317.919 1005.64 317.937H1008.06C1009 318.041 1009.95 317.948 1010.85 317.663C1011.74 317.377 1012.57 316.906 1013.28 316.281C1013.92 315.504 1014.39 314.608 1014.68 313.645C1014.96 312.682 1015.05 311.672 1014.94 310.675V218.301C1015.04 217.323 1014.94 216.335 1014.66 215.395C1014.38 214.454 1013.91 213.579 1013.28 212.822C1011.8 211.655 1009.93 211.106 1008.06 211.293H1005.64C1005.13 211.311 1004.63 211.224 1004.16 211.039C1003.68 210.853 1003.26 210.572 1002.9 210.213C1002.54 209.855 1002.26 209.426 1002.07 208.955C1001.89 208.483 1001.8 207.978 1001.82 207.471V203.521C1001.82 202.507 1002.22 201.535 1002.94 200.818C1003.65 200.102 1004.63 199.699 1005.64 199.699H1014.81C1016.76 199.682 1018.69 200.052 1020.5 200.787C1022.31 201.522 1023.95 202.608 1025.34 203.982C1026.72 205.356 1027.82 206.992 1028.57 208.793C1029.32 210.595 1029.71 212.527 1029.71 214.479V246.204C1033.79 241.685 1038.78 238.082 1044.36 235.629C1050.38 233.4 1056.78 232.361 1063.21 232.571C1067.33 232.282 1071.46 232.883 1075.33 234.334C1079.2 235.785 1082.71 238.052 1085.62 240.98C1091.19 247.67 1093.97 256.247 1093.39 264.934V310.675C1093.19 312.668 1093.74 314.663 1094.92 316.281C1095.64 316.917 1096.49 317.393 1097.42 317.678C1098.34 317.963 1099.31 318.052 1100.27 317.937H1102.69C1103.7 317.937 1104.67 318.34 1105.39 319.057C1106.1 319.773 1106.51 320.746 1106.51 321.759V325.709C1106.47 326.713 1106.06 327.667 1105.35 328.377C1104.64 329.087 1103.69 329.5 1102.69 329.531H1093.39C1089.13 329.531 1085.05 327.84 1082.04 324.829C1079.03 321.819 1077.34 317.735 1077.34 313.478V265.061C1077.89 259.382 1076.2 253.714 1072.63 249.262C1070.59 247.454 1068.21 246.081 1065.63 245.227C1063.04 244.372 1060.31 244.054 1057.6 244.293C1050.56 244.055 1043.67 246.413 1038.24 250.918C1035.64 253.132 1033.59 255.916 1032.24 259.054C1030.89 262.193 1030.29 265.6 1030.47 269.011V310.675C1030.32 312.646 1030.81 314.615 1031.87 316.281C1032.58 316.913 1033.41 317.389 1034.31 317.674C1035.21 317.96 1036.16 318.049 1037.1 317.937H1039.77C1040.78 317.937 1041.76 318.34 1042.47 319.057C1043.19 319.773 1043.59 320.746 1043.59 321.759V325.709C1043.56 326.713 1043.15 327.667 1042.44 328.377C1041.73 329.087 1040.77 329.5 1039.77 329.531H1005.64C1004.63 329.531 1003.65 329.129 1002.94 328.412C1002.22 327.695 1001.82 326.723 1001.82 325.709V321.759Z" fill="#223D7C"/>
<path d="M1161.27 315.517C1161.27 306.228 1153.74 298.698 1144.46 298.698C1135.17 298.698 1127.65 306.228 1127.65 315.517C1127.65 324.805 1135.17 332.335 1144.46 332.335C1153.74 332.335 1161.27 324.805 1161.27 315.517Z" fill="#8E60EF"/>
</g>
<defs>
<linearGradient id="paint0_linear_503_526" x1="312.352" y1="-119.191" x2="-59.4957" y2="476.329" gradientUnits="userSpaceOnUse">
<stop stop-color="#2A5CCF"/>
<stop offset="0.473958" stop-color="#153A91"/>
<stop offset="0.983455" stop-color="#2F1568"/>
</linearGradient>
<linearGradient id="paint1_linear_503_526" x1="-275.043" y1="-104.95" x2="287.557" y2="390.049" gradientUnits="userSpaceOnUse">
<stop stop-color="#2A5CCF"/>
<stop offset="0.38531" stop-color="#153A91"/>
<stop offset="1" stop-color="#2F1568"/>
</linearGradient>
<linearGradient id="paint2_linear_503_526" x1="670.282" y1="-212.591" x2="-74.3689" y2="913.516" gradientUnits="userSpaceOnUse">
<stop stop-color="#153A91"/>
<stop offset="0.458233" stop-color="#2A5CCF"/>
<stop offset="0.458333" stop-color="#2F1568"/>
<stop offset="1" stop-color="#153A91"/>
</linearGradient>
<linearGradient id="paint3_linear_503_526" x1="-106.986" y1="-212.686" x2="365.663" y2="323.555" gradientUnits="userSpaceOnUse">
<stop stop-color="#2F1568"/>
<stop offset="0.255208" stop-color="#153A91"/>
<stop offset="0.983555" stop-color="#2A5CCF"/>
</linearGradient>
<linearGradient id="paint4_linear_503_526" x1="285.161" y1="180.846" x2="97.7637" y2="180.846" gradientUnits="userSpaceOnUse">
<stop stop-color="#BACAEF"/>
<stop offset="0.0729167" stop-color="#8E60EF"/>
<stop offset="1" stop-color="#2F1568"/>
</linearGradient>
<linearGradient id="paint5_linear_503_526" x1="97.4204" y1="190.75" x2="97.4204" y2="253.582" gradientUnits="userSpaceOnUse">
<stop stop-color="#2A5CCF"/>
<stop offset="0.776042" stop-color="#153A91"/>
</linearGradient>
<linearGradient id="paint6_linear_503_526" x1="195.573" y1="83.0002" x2="200.382" y2="281.898" gradientUnits="userSpaceOnUse">
<stop stop-color="#153A91"/>
<stop offset="1" stop-color="#2A5CCF"/>
</linearGradient>
<radialGradient id="paint7_radial_503_526" cx="0" cy="0" r="1" gradientUnits="userSpaceOnUse" gradientTransform="translate(273.5 269) rotate(-91.9252) scale(119.067 123.486)">
<stop offset="0.463542" stop-color="#153A91"/>
<stop offset="1" stop-color="#2A5CCF"/>
</radialGradient>
<clipPath id="clip0_503_526">
<rect width="1162" height="375" fill="white"/>
</clipPath>
</defs>
</svg>
