<svg width="2299" height="334" viewBox="0 0 2299 334" fill="none" xmlns="http://www.w3.org/2000/svg">
<path fill-rule="evenodd" clip-rule="evenodd" d="M8.36011 167.058H165.608L81.8718 302.061L199.6 209.858L199.591 209.847H199.6L199.627 209.808L298.232 333.944L381.364 167.072L462.598 3.86514L340.308 99.7983L381.364 167.072H371.836H254.43L199.627 209.808L199.587 209.755V209.841L165.608 167.058H254.443L340.308 99.8231L279.522 0L165.608 167.058L83.5714 69.0127L8.36011 167.058ZM381.378 167.083L435.846 256.643L502.492 167.083H381.378ZM669.377 84.4535H699.487L739.529 160.952L779.595 84.4535H809.68L753.311 187.071V252.086H725.531V188.02L669.377 84.4535ZM992.235 81.8202C1017.4 81.8202 1036.87 89.3458 1050.58 104.41L1050.56 104.423C1064.29 119.488 1071.17 140.686 1071.17 168.088C1071.17 195.357 1064.28 216.571 1050.49 231.715C1036.71 246.845 1017.21 254.399 992.009 254.399C966.447 254.399 946.815 246.887 933.124 231.849C919.408 216.838 912.581 195.49 912.581 167.821C912.581 140.152 919.486 118.898 933.272 104.062C947.043 89.2253 966.675 81.8202 992.235 81.8202ZM992.249 105.346C975.654 105.346 963.128 110.639 954.698 121.253L954.684 121.264L954.656 121.292C946.199 131.933 941.969 147.517 941.969 168.077C941.969 188.716 946.16 204.366 954.59 215.021C962.994 225.659 975.467 231.005 992.009 231.005C1008.41 231.005 1020.82 225.726 1029.21 215.168C1037.59 204.619 1041.76 188.916 1041.76 168.035C1041.76 147.478 1037.62 131.891 1029.36 121.253C1021.06 110.639 1008.68 105.346 992.249 105.346ZM1301.45 190.305V84.4669H1329.07V192.913C1329.07 205.29 1326.39 216.143 1321.04 225.433C1315.68 234.71 1307.92 241.861 1297.75 246.873C1287.61 251.886 1275.5 254.385 1261.35 254.385C1240.36 254.385 1224.04 248.877 1212.4 237.878C1200.74 226.864 1194.92 211.731 1194.92 192.456V84.4535H1222.74V190.544C1222.74 204.38 1225.99 214.606 1232.46 221.155C1238.95 227.732 1248.88 231.005 1262.33 231.005C1288.4 231.005 1301.45 217.44 1301.45 190.305ZM1555.45 241.098V252.086L1555.48 252.111H1462.98V84.4402H1474.75V241.098H1555.45ZM1685.33 241.326H1766.03V252.073H1673.53V84.4535H1766.03V95.2403H1685.36V158.678H1761.51V169.413H1685.33V241.326ZM2004.86 84.4535H2016.31L2016.3 84.4669V252.086H2004.36L1904.12 103.274H1903.19C1904.12 121.011 1904.59 134.39 1904.59 143.4V252.073H1893.28V84.4535H1905.06L2005.2 233.051H2005.93C2005.2 219.299 2004.86 206.239 2004.86 193.834V84.4535ZM2198.89 84.4535C2225.86 84.4535 2246.4 91.4441 2260.52 105.439L2260.51 105.426C2274.61 119.422 2281.65 139.818 2281.65 166.685C2281.65 194.808 2274.21 216.09 2259.3 230.499C2244.4 244.908 2222.54 252.073 2193.68 252.073H2153.12V84.4535H2198.89ZM2164.94 241.78H2192.96H2192.99V241.741C2243.55 241.741 2268.82 216.863 2268.82 167.1C2268.82 143.094 2262.66 125.036 2250.35 112.925C2238.04 100.801 2219.96 94.7457 2196.1 94.7457H2164.94V241.78Z" fill="#2E3333"/>
</svg>
